%TF.GenerationSoftware,KiCad,Pcbnew,8.0.6*%
%TF.CreationDate,2024-12-19T22:40:05-08:00*%
%TF.ProjectId,norns-shield-210330,6e6f726e-732d-4736-9869-656c642d3231,rev?*%
%TF.SameCoordinates,Original*%
%TF.FileFunction,Soldermask,Top*%
%TF.FilePolarity,Negative*%
%FSLAX46Y46*%
G04 Gerber Fmt 4.6, Leading zero omitted, Abs format (unit mm)*
G04 Created by KiCad (PCBNEW 8.0.6) date 2024-12-19 22:40:05*
%MOMM*%
%LPD*%
G01*
G04 APERTURE LIST*
G04 Aperture macros list*
%AMRoundRect*
0 Rectangle with rounded corners*
0 $1 Rounding radius*
0 $2 $3 $4 $5 $6 $7 $8 $9 X,Y pos of 4 corners*
0 Add a 4 corners polygon primitive as box body*
4,1,4,$2,$3,$4,$5,$6,$7,$8,$9,$2,$3,0*
0 Add four circle primitives for the rounded corners*
1,1,$1+$1,$2,$3*
1,1,$1+$1,$4,$5*
1,1,$1+$1,$6,$7*
1,1,$1+$1,$8,$9*
0 Add four rect primitives between the rounded corners*
20,1,$1+$1,$2,$3,$4,$5,0*
20,1,$1+$1,$4,$5,$6,$7,0*
20,1,$1+$1,$6,$7,$8,$9,0*
20,1,$1+$1,$8,$9,$2,$3,0*%
%AMFreePoly0*
4,1,25,0.309904,0.686196,0.322027,0.675842,0.675842,0.322027,0.704349,0.266079,0.705600,0.250185,0.705600,-0.250185,0.686196,-0.309904,0.675842,-0.322027,0.322027,-0.675842,0.266079,-0.704349,0.250185,-0.705600,-0.250185,-0.705600,-0.309904,-0.686196,-0.322027,-0.675842,-0.675842,-0.322027,-0.704349,-0.266079,-0.705600,-0.250185,-0.705600,0.250185,-0.686196,0.309904,-0.675842,0.322027,
-0.322027,0.675842,-0.266079,0.704349,-0.250185,0.705600,0.250185,0.705600,0.309904,0.686196,0.309904,0.686196,$1*%
%AMFreePoly1*
4,1,25,0.370379,0.832196,0.382502,0.821842,0.821842,0.382502,0.850349,0.326554,0.851600,0.310660,0.851600,-0.310660,0.832196,-0.370379,0.821842,-0.382502,0.382502,-0.821842,0.326554,-0.850349,0.310660,-0.851600,-0.310660,-0.851600,-0.370379,-0.832196,-0.382502,-0.821842,-0.821842,-0.382502,-0.850349,-0.326554,-0.851600,-0.310660,-0.851600,0.310660,-0.832196,0.370379,-0.821842,0.382502,
-0.382502,0.821842,-0.326554,0.850349,-0.310660,0.851600,0.310660,0.851600,0.370379,0.832196,0.370379,0.832196,$1*%
%AMFreePoly2*
4,1,25,0.372036,0.836196,0.384159,0.825842,0.825842,0.384159,0.854349,0.328211,0.855600,0.312317,0.855600,-0.312317,0.836196,-0.372036,0.825842,-0.384159,0.384159,-0.825842,0.328211,-0.854349,0.312317,-0.855600,-0.312317,-0.855600,-0.372036,-0.836196,-0.384159,-0.825842,-0.825842,-0.384159,-0.854349,-0.328211,-0.855600,-0.312317,-0.855600,0.312317,-0.836196,0.372036,-0.825842,0.384159,
-0.384159,0.825842,-0.328211,0.854349,-0.312317,0.855600,0.312317,0.855600,0.372036,0.836196,0.372036,0.836196,$1*%
G04 Aperture macros list end*
%ADD10C,2.800000*%
%ADD11C,1.981200*%
%ADD12RoundRect,0.101600X0.889000X0.889000X-0.889000X0.889000X-0.889000X-0.889000X0.889000X-0.889000X0*%
%ADD13C,2.750000*%
%ADD14RoundRect,0.701600X0.000010X0.000010X-0.000010X0.000010X-0.000010X-0.000010X0.000010X-0.000010X0*%
%ADD15RoundRect,0.701600X-0.000010X0.000010X-0.000010X-0.000010X0.000010X-0.000010X0.000010X0.000010X0*%
%ADD16RoundRect,0.701600X-0.000010X-0.000010X0.000010X-0.000010X0.000010X0.000010X-0.000010X0.000010X0*%
%ADD17RoundRect,0.701600X0.000010X-0.000010X0.000010X0.000010X-0.000010X0.000010X-0.000010X-0.000010X0*%
%ADD18FreePoly0,180.000000*%
%ADD19C,2.286000*%
%ADD20FreePoly1,0.000000*%
%ADD21RoundRect,0.101600X-0.750000X-0.750000X0.750000X-0.750000X0.750000X0.750000X-0.750000X0.750000X0*%
%ADD22O,4.703200X2.453200*%
%ADD23FreePoly2,270.000000*%
%ADD24O,2.003200X3.803200*%
%ADD25C,1.600000*%
G04 APERTURE END LIST*
D10*
%TO.C,@HOLE0*%
X187553600Y-141516100D03*
%TD*%
%TO.C,@HOLE1*%
X109448600Y-141516100D03*
%TD*%
D11*
%TO.C,X1*%
X134416100Y-118768600D03*
X134416100Y-116228600D03*
X136956100Y-118768600D03*
X136956100Y-116228600D03*
X139496100Y-118768600D03*
X139496100Y-116228600D03*
X142036100Y-118768600D03*
X142036100Y-116228600D03*
X144576100Y-118768600D03*
X144576100Y-116228600D03*
X147116100Y-118768600D03*
X147116100Y-116228600D03*
X149656100Y-118768600D03*
X149656100Y-116228600D03*
X152196100Y-118768600D03*
X152196100Y-116228600D03*
X154736100Y-118768600D03*
X154736100Y-116228600D03*
X157276100Y-118768600D03*
X157276100Y-116228600D03*
X159816100Y-118768600D03*
X159816100Y-116228600D03*
X162356100Y-118768600D03*
X162356100Y-116228600D03*
X164896100Y-118768600D03*
X164896100Y-116228600D03*
X167436100Y-118768600D03*
X167436100Y-116228600D03*
X169976100Y-118768600D03*
X169976100Y-116228600D03*
X172516100Y-118768600D03*
X172516100Y-116228600D03*
X175056100Y-118768600D03*
X175056100Y-116228600D03*
X177596100Y-118768600D03*
X177596100Y-116228600D03*
X180136100Y-118768600D03*
X180136100Y-116228600D03*
X182676100Y-118768600D03*
D12*
X182676100Y-116228600D03*
D13*
X129546100Y-117498600D03*
X129546100Y-68498600D03*
X187546100Y-68498600D03*
%TD*%
D14*
%TO.C,/SDIN0*%
X135166100Y-120878600D03*
%TD*%
%TO.C,/LRCK0*%
X140246100Y-113893600D03*
%TD*%
%TO.C,/MCLK0*%
X145326100Y-97383600D03*
%TD*%
D15*
%TO.C,/SCLK0*%
X137706100Y-108178600D03*
%TD*%
D14*
%TO.C,/SDOUT0*%
X137706100Y-120878600D03*
%TD*%
D16*
%TO.C,/RESET0*%
X134531100Y-103733600D03*
%TD*%
D17*
%TO.C,/OUTA0*%
X155486100Y-85001100D03*
%TD*%
%TO.C,/OUTB0*%
X145326100Y-85001100D03*
%TD*%
%TO.C,/INA0*%
X142786100Y-84683600D03*
%TD*%
%TO.C,/INB0*%
X132626100Y-84683600D03*
%TD*%
D15*
%TO.C,/SDA0*%
X136436100Y-106273600D03*
%TD*%
%TO.C,/SCL0*%
X135166100Y-105003600D03*
%TD*%
D18*
%TO.C,SW1*%
X160106100Y-71388600D03*
X160106100Y-76388600D03*
X166106100Y-76388600D03*
X166106100Y-71388600D03*
%TD*%
%TO.C,SW2*%
X114386100Y-133618600D03*
X114386100Y-138618600D03*
X120386100Y-138618600D03*
X120386100Y-133618600D03*
%TD*%
%TO.C,SW3*%
X129626100Y-133618600D03*
X129626100Y-138618600D03*
X135626100Y-138618600D03*
X135626100Y-133618600D03*
%TD*%
D19*
%TO.C,U$1*%
X187001100Y-83753600D03*
X110001100Y-83753600D03*
D20*
X172631100Y-126253600D03*
X170091100Y-126253600D03*
X167551100Y-126253600D03*
X165011100Y-126253600D03*
X162471100Y-126253600D03*
X159931100Y-126253600D03*
X157391100Y-126253600D03*
X154851100Y-126253600D03*
X152311100Y-126253600D03*
X149771100Y-126253600D03*
X147231100Y-126253600D03*
X144691100Y-126253600D03*
X142151100Y-126253600D03*
X139611100Y-126253600D03*
X137071100Y-126253600D03*
X134531100Y-126253600D03*
X131991100Y-126253600D03*
X129451100Y-126253600D03*
X126911100Y-126253600D03*
D21*
X124371100Y-126253600D03*
%TD*%
D22*
%TO.C,E1*%
X178346100Y-79603600D03*
X178346100Y-68173600D03*
D23*
X170846100Y-76388600D03*
X170846100Y-73888600D03*
X170846100Y-71388600D03*
%TD*%
D22*
%TO.C,E2*%
X178346100Y-141833600D03*
X178346100Y-130403600D03*
D23*
X170846100Y-138618600D03*
X170846100Y-136118600D03*
X170846100Y-133618600D03*
%TD*%
D22*
%TO.C,E3*%
X158026100Y-141833600D03*
X158026100Y-130403600D03*
D23*
X150526100Y-138618600D03*
X150526100Y-136118600D03*
X150526100Y-133618600D03*
%TD*%
D24*
%TO.C,J-OUT0*%
X147906100Y-70438600D03*
X148206100Y-76238600D03*
X152906100Y-74438600D03*
X152906100Y-67538600D03*
D25*
X150406100Y-74138600D03*
X150406100Y-68138600D03*
%TD*%
D24*
%TO.C,J-IN0*%
X135206100Y-70438600D03*
X135506100Y-76238600D03*
X140206100Y-74438600D03*
X140206100Y-67538600D03*
D25*
X137706100Y-74138600D03*
X137706100Y-68138600D03*
%TD*%
M02*
