M48
; DRILL file {KiCad 8.0.6} date 2024-12-19T22:40:07-0800
; FORMAT={-:-/ absolute / inch / decimal}
; #@! TF.CreationDate,2024-12-19T22:40:07-08:00
; #@! TF.GenerationSoftware,Kicad,Pcbnew,8.0.6
; #@! TF.FileFunction,Plated,1,2,PTH
FMAT,2
INCH
; #@! TA.AperFunction,Plated,PTH,ViaDrill
T1C0.0100
; #@! TA.AperFunction,Plated,PTH,ViaDrill
T2C0.0150
; #@! TA.AperFunction,Plated,PTH,ViaDrill
T3C0.0197
; #@! TA.AperFunction,Plated,PTH,ComponentDrill
T4C0.0276
; #@! TA.AperFunction,Plated,PTH,ComponentDrill
T5C0.0394
; #@! TA.AperFunction,Plated,PTH,ComponentDrill
T6C0.0472
; #@! TA.AperFunction,Plated,PTH,ComponentDrill
T7C0.0591
%
G90
G05
T1
X5.2715Y-3.334
X5.3465Y-4.084
X5.3965Y-4.134
X5.4215Y-4.184
X5.4215Y-4.309
X5.4965Y-4.879
X5.509Y-4.259
X5.5715Y-3.334
X5.5965Y-4.309
X5.6715Y-4.759
X5.6965Y-3.809
X5.6965Y-5.1715
X5.7215Y-4.209
X5.7215Y-4.309
X5.7465Y-4.884
X5.7715Y-3.3465
X5.7715Y-4.759
X5.7965Y-4.884
X5.8215Y-4.259
X5.8215Y-4.809
X5.9715Y-4.359
X6.0715Y-3.3465
X6.0715Y-5.1715
X6.1915Y-4.859
X6.2965Y-3.209
X6.4415Y-4.809
X6.4965Y-5.1715
X6.5215Y-3.209
X6.5715Y-4.809
X6.8215Y-3.959
X6.8715Y-4.009
X6.8715Y-5.1715
X6.8965Y-3.209
X6.9215Y-4.059
X7.2215Y-4.134
T2
X5.0965Y-3.684
X5.1715Y-3.559
X5.2965Y-3.809
X5.309Y-3.1715
X5.3715Y-3.834
X5.4215Y-3.409
X5.4715Y-3.184
X5.4965Y-3.7215
X5.5465Y-3.484
X5.6215Y-4.0965
X5.6965Y-3.259
X5.6965Y-3.509
X5.7715Y-3.8215
X6.1465Y-3.259
T3
X5.959Y-3.734
X6.009Y-3.534
X6.159Y-3.534
X6.1965Y-3.7215
T4
X4.5034Y-5.2606
X4.5034Y-5.4574
X4.7396Y-5.2606
X4.7396Y-5.4574
X5.1034Y-5.2606
X5.1034Y-5.4574
X5.3396Y-5.2606
X5.3396Y-5.4574
X6.3034Y-2.8106
X6.3034Y-3.0074
X6.5396Y-2.8106
X6.5396Y-3.0074
T5
X4.8965Y-4.9706
X4.9965Y-4.9706
X5.0965Y-4.9706
X5.1965Y-4.9706
X5.292Y-4.5759
X5.292Y-4.6759
X5.2965Y-4.9706
X5.392Y-4.5759
X5.392Y-4.6759
X5.3965Y-4.9706
X5.492Y-4.5759
X5.492Y-4.6759
X5.4965Y-4.9706
X5.592Y-4.5759
X5.592Y-4.6759
X5.5965Y-4.9706
X5.692Y-4.5759
X5.692Y-4.6759
X5.6965Y-4.9706
X5.792Y-4.5759
X5.792Y-4.6759
X5.7965Y-4.9706
X5.892Y-4.5759
X5.892Y-4.6759
X5.8965Y-4.9706
X5.9262Y-5.2606
X5.9262Y-5.359
X5.9262Y-5.4574
X5.992Y-4.5759
X5.992Y-4.6759
X5.9965Y-4.9706
X6.092Y-4.5759
X6.092Y-4.6759
X6.0965Y-4.9706
X6.192Y-4.5759
X6.192Y-4.6759
X6.1965Y-4.9706
X6.292Y-4.5759
X6.292Y-4.6759
X6.2965Y-4.9706
X6.392Y-4.5759
X6.392Y-4.6759
X6.3965Y-4.9706
X6.492Y-4.5759
X6.492Y-4.6759
X6.4965Y-4.9706
X6.592Y-4.5759
X6.592Y-4.6759
X6.5965Y-4.9706
X6.692Y-4.5759
X6.692Y-4.6759
X6.6965Y-4.9706
X6.7262Y-2.8106
X6.7262Y-2.909
X6.7262Y-3.0074
X6.7262Y-5.2606
X6.7262Y-5.359
X6.7262Y-5.4574
X6.792Y-4.5759
X6.792Y-4.6759
X6.7965Y-4.9706
X6.892Y-4.5759
X6.892Y-4.6759
X6.992Y-4.5759
X6.992Y-4.6759
X7.092Y-4.5759
X7.092Y-4.6759
X7.192Y-4.5759
X7.192Y-4.6759
T6
X5.3231Y-2.7732
X5.3349Y-3.0015
X5.5199Y-2.659
X5.5199Y-2.9307
X5.8231Y-2.7732
X5.8349Y-3.0015
X6.0199Y-2.659
X6.0199Y-2.9307
T7
X6.2215Y-5.134
X6.2215Y-5.584
X7.0215Y-2.684
X7.0215Y-3.134
X7.0215Y-5.134
X7.0215Y-5.584
M30
