%TF.GenerationSoftware,KiCad,Pcbnew,8.0.6*%
%TF.CreationDate,2024-12-19T22:40:04-08:00*%
%TF.ProjectId,norns-shield-210330,6e6f726e-732d-4736-9869-656c642d3231,rev?*%
%TF.SameCoordinates,Original*%
%TF.FileFunction,Legend,Top*%
%TF.FilePolarity,Positive*%
%FSLAX46Y46*%
G04 Gerber Fmt 4.6, Leading zero omitted, Abs format (unit mm)*
G04 Created by KiCad (PCBNEW 8.0.6) date 2024-12-19 22:40:04*
%MOMM*%
%LPD*%
G01*
G04 APERTURE LIST*
%ADD10C,0.266700*%
%ADD11C,0.101600*%
%ADD12C,0.140208*%
%ADD13C,0.093472*%
%ADD14C,0.127000*%
%ADD15C,0.304800*%
%ADD16C,0.406400*%
%ADD17C,0.203200*%
G04 APERTURE END LIST*
D10*
X110110893Y-67875294D02*
X108815493Y-69818394D01*
X111694160Y-67875294D02*
X110398760Y-69818394D01*
X113277427Y-67875294D02*
X111982027Y-69818394D01*
X114860694Y-67875294D02*
X113565294Y-69818394D01*
X116443961Y-67875294D02*
X115148561Y-69818394D01*
X118027228Y-67875294D02*
X116731828Y-69818394D01*
X119610495Y-67875294D02*
X118315095Y-69818394D01*
X121193762Y-67875294D02*
X119898362Y-69818394D01*
X109031393Y-70884135D02*
X109031393Y-71891668D01*
X109031393Y-71028068D02*
X109103360Y-70956102D01*
X109103360Y-70956102D02*
X109247293Y-70884135D01*
X109247293Y-70884135D02*
X109463193Y-70884135D01*
X109463193Y-70884135D02*
X109607126Y-70956102D01*
X109607126Y-70956102D02*
X109679093Y-71100035D01*
X109679093Y-71100035D02*
X109679093Y-71891668D01*
X110614660Y-71891668D02*
X110470727Y-71819702D01*
X110470727Y-71819702D02*
X110398760Y-71747735D01*
X110398760Y-71747735D02*
X110326793Y-71603802D01*
X110326793Y-71603802D02*
X110326793Y-71172002D01*
X110326793Y-71172002D02*
X110398760Y-71028068D01*
X110398760Y-71028068D02*
X110470727Y-70956102D01*
X110470727Y-70956102D02*
X110614660Y-70884135D01*
X110614660Y-70884135D02*
X110830560Y-70884135D01*
X110830560Y-70884135D02*
X110974493Y-70956102D01*
X110974493Y-70956102D02*
X111046460Y-71028068D01*
X111046460Y-71028068D02*
X111118427Y-71172002D01*
X111118427Y-71172002D02*
X111118427Y-71603802D01*
X111118427Y-71603802D02*
X111046460Y-71747735D01*
X111046460Y-71747735D02*
X110974493Y-71819702D01*
X110974493Y-71819702D02*
X110830560Y-71891668D01*
X110830560Y-71891668D02*
X110614660Y-71891668D01*
X111766127Y-71891668D02*
X111766127Y-70884135D01*
X111766127Y-71172002D02*
X111838094Y-71028068D01*
X111838094Y-71028068D02*
X111910060Y-70956102D01*
X111910060Y-70956102D02*
X112053994Y-70884135D01*
X112053994Y-70884135D02*
X112197927Y-70884135D01*
X112701694Y-70884135D02*
X112701694Y-71891668D01*
X112701694Y-71028068D02*
X112773661Y-70956102D01*
X112773661Y-70956102D02*
X112917594Y-70884135D01*
X112917594Y-70884135D02*
X113133494Y-70884135D01*
X113133494Y-70884135D02*
X113277427Y-70956102D01*
X113277427Y-70956102D02*
X113349394Y-71100035D01*
X113349394Y-71100035D02*
X113349394Y-71891668D01*
X113997094Y-71819702D02*
X114141028Y-71891668D01*
X114141028Y-71891668D02*
X114428894Y-71891668D01*
X114428894Y-71891668D02*
X114572828Y-71819702D01*
X114572828Y-71819702D02*
X114644794Y-71675768D01*
X114644794Y-71675768D02*
X114644794Y-71603802D01*
X114644794Y-71603802D02*
X114572828Y-71459868D01*
X114572828Y-71459868D02*
X114428894Y-71387902D01*
X114428894Y-71387902D02*
X114212994Y-71387902D01*
X114212994Y-71387902D02*
X114069061Y-71315935D01*
X114069061Y-71315935D02*
X113997094Y-71172002D01*
X113997094Y-71172002D02*
X113997094Y-71100035D01*
X113997094Y-71100035D02*
X114069061Y-70956102D01*
X114069061Y-70956102D02*
X114212994Y-70884135D01*
X114212994Y-70884135D02*
X114428894Y-70884135D01*
X114428894Y-70884135D02*
X114572828Y-70956102D01*
X116371994Y-70308402D02*
X115076594Y-72251502D01*
X116803794Y-71819702D02*
X116947728Y-71891668D01*
X116947728Y-71891668D02*
X117235594Y-71891668D01*
X117235594Y-71891668D02*
X117379528Y-71819702D01*
X117379528Y-71819702D02*
X117451494Y-71675768D01*
X117451494Y-71675768D02*
X117451494Y-71603802D01*
X117451494Y-71603802D02*
X117379528Y-71459868D01*
X117379528Y-71459868D02*
X117235594Y-71387902D01*
X117235594Y-71387902D02*
X117019694Y-71387902D01*
X117019694Y-71387902D02*
X116875761Y-71315935D01*
X116875761Y-71315935D02*
X116803794Y-71172002D01*
X116803794Y-71172002D02*
X116803794Y-71100035D01*
X116803794Y-71100035D02*
X116875761Y-70956102D01*
X116875761Y-70956102D02*
X117019694Y-70884135D01*
X117019694Y-70884135D02*
X117235594Y-70884135D01*
X117235594Y-70884135D02*
X117379528Y-70956102D01*
X118099194Y-71891668D02*
X118099194Y-70380368D01*
X118746894Y-71891668D02*
X118746894Y-71100035D01*
X118746894Y-71100035D02*
X118674927Y-70956102D01*
X118674927Y-70956102D02*
X118530994Y-70884135D01*
X118530994Y-70884135D02*
X118315094Y-70884135D01*
X118315094Y-70884135D02*
X118171161Y-70956102D01*
X118171161Y-70956102D02*
X118099194Y-71028068D01*
X119466561Y-71891668D02*
X119466561Y-70884135D01*
X119466561Y-70380368D02*
X119394594Y-70452335D01*
X119394594Y-70452335D02*
X119466561Y-70524302D01*
X119466561Y-70524302D02*
X119538528Y-70452335D01*
X119538528Y-70452335D02*
X119466561Y-70380368D01*
X119466561Y-70380368D02*
X119466561Y-70524302D01*
X120761961Y-71819702D02*
X120618028Y-71891668D01*
X120618028Y-71891668D02*
X120330161Y-71891668D01*
X120330161Y-71891668D02*
X120186228Y-71819702D01*
X120186228Y-71819702D02*
X120114261Y-71675768D01*
X120114261Y-71675768D02*
X120114261Y-71100035D01*
X120114261Y-71100035D02*
X120186228Y-70956102D01*
X120186228Y-70956102D02*
X120330161Y-70884135D01*
X120330161Y-70884135D02*
X120618028Y-70884135D01*
X120618028Y-70884135D02*
X120761961Y-70956102D01*
X120761961Y-70956102D02*
X120833928Y-71100035D01*
X120833928Y-71100035D02*
X120833928Y-71243968D01*
X120833928Y-71243968D02*
X120114261Y-71387902D01*
X121697528Y-71891668D02*
X121553595Y-71819702D01*
X121553595Y-71819702D02*
X121481628Y-71675768D01*
X121481628Y-71675768D02*
X121481628Y-70380368D01*
X122920961Y-71891668D02*
X122920961Y-70380368D01*
X122920961Y-71819702D02*
X122777028Y-71891668D01*
X122777028Y-71891668D02*
X122489161Y-71891668D01*
X122489161Y-71891668D02*
X122345228Y-71819702D01*
X122345228Y-71819702D02*
X122273261Y-71747735D01*
X122273261Y-71747735D02*
X122201294Y-71603802D01*
X122201294Y-71603802D02*
X122201294Y-71172002D01*
X122201294Y-71172002D02*
X122273261Y-71028068D01*
X122273261Y-71028068D02*
X122345228Y-70956102D01*
X122345228Y-70956102D02*
X122489161Y-70884135D01*
X122489161Y-70884135D02*
X122777028Y-70884135D01*
X122777028Y-70884135D02*
X122920961Y-70956102D01*
X108959426Y-72957410D02*
X109031393Y-72885443D01*
X109031393Y-72885443D02*
X109175326Y-72813476D01*
X109175326Y-72813476D02*
X109535160Y-72813476D01*
X109535160Y-72813476D02*
X109679093Y-72885443D01*
X109679093Y-72885443D02*
X109751060Y-72957410D01*
X109751060Y-72957410D02*
X109823026Y-73101343D01*
X109823026Y-73101343D02*
X109823026Y-73245276D01*
X109823026Y-73245276D02*
X109751060Y-73461176D01*
X109751060Y-73461176D02*
X108887460Y-74324776D01*
X108887460Y-74324776D02*
X109823026Y-74324776D01*
X111262359Y-74324776D02*
X110398759Y-74324776D01*
X110830559Y-74324776D02*
X110830559Y-72813476D01*
X110830559Y-72813476D02*
X110686626Y-73029376D01*
X110686626Y-73029376D02*
X110542693Y-73173310D01*
X110542693Y-73173310D02*
X110398759Y-73245276D01*
X112197926Y-72813476D02*
X112341859Y-72813476D01*
X112341859Y-72813476D02*
X112485792Y-72885443D01*
X112485792Y-72885443D02*
X112557759Y-72957410D01*
X112557759Y-72957410D02*
X112629726Y-73101343D01*
X112629726Y-73101343D02*
X112701692Y-73389210D01*
X112701692Y-73389210D02*
X112701692Y-73749043D01*
X112701692Y-73749043D02*
X112629726Y-74036910D01*
X112629726Y-74036910D02*
X112557759Y-74180843D01*
X112557759Y-74180843D02*
X112485792Y-74252810D01*
X112485792Y-74252810D02*
X112341859Y-74324776D01*
X112341859Y-74324776D02*
X112197926Y-74324776D01*
X112197926Y-74324776D02*
X112053992Y-74252810D01*
X112053992Y-74252810D02*
X111982026Y-74180843D01*
X111982026Y-74180843D02*
X111910059Y-74036910D01*
X111910059Y-74036910D02*
X111838092Y-73749043D01*
X111838092Y-73749043D02*
X111838092Y-73389210D01*
X111838092Y-73389210D02*
X111910059Y-73101343D01*
X111910059Y-73101343D02*
X111982026Y-72957410D01*
X111982026Y-72957410D02*
X112053992Y-72885443D01*
X112053992Y-72885443D02*
X112197926Y-72813476D01*
X113205459Y-72813476D02*
X114141025Y-72813476D01*
X114141025Y-72813476D02*
X113637259Y-73389210D01*
X113637259Y-73389210D02*
X113853159Y-73389210D01*
X113853159Y-73389210D02*
X113997092Y-73461176D01*
X113997092Y-73461176D02*
X114069059Y-73533143D01*
X114069059Y-73533143D02*
X114141025Y-73677076D01*
X114141025Y-73677076D02*
X114141025Y-74036910D01*
X114141025Y-74036910D02*
X114069059Y-74180843D01*
X114069059Y-74180843D02*
X113997092Y-74252810D01*
X113997092Y-74252810D02*
X113853159Y-74324776D01*
X113853159Y-74324776D02*
X113421359Y-74324776D01*
X113421359Y-74324776D02*
X113277425Y-74252810D01*
X113277425Y-74252810D02*
X113205459Y-74180843D01*
X114644792Y-72813476D02*
X115580358Y-72813476D01*
X115580358Y-72813476D02*
X115076592Y-73389210D01*
X115076592Y-73389210D02*
X115292492Y-73389210D01*
X115292492Y-73389210D02*
X115436425Y-73461176D01*
X115436425Y-73461176D02*
X115508392Y-73533143D01*
X115508392Y-73533143D02*
X115580358Y-73677076D01*
X115580358Y-73677076D02*
X115580358Y-74036910D01*
X115580358Y-74036910D02*
X115508392Y-74180843D01*
X115508392Y-74180843D02*
X115436425Y-74252810D01*
X115436425Y-74252810D02*
X115292492Y-74324776D01*
X115292492Y-74324776D02*
X114860692Y-74324776D01*
X114860692Y-74324776D02*
X114716758Y-74252810D01*
X114716758Y-74252810D02*
X114644792Y-74180843D01*
X116515925Y-72813476D02*
X116659858Y-72813476D01*
X116659858Y-72813476D02*
X116803791Y-72885443D01*
X116803791Y-72885443D02*
X116875758Y-72957410D01*
X116875758Y-72957410D02*
X116947725Y-73101343D01*
X116947725Y-73101343D02*
X117019691Y-73389210D01*
X117019691Y-73389210D02*
X117019691Y-73749043D01*
X117019691Y-73749043D02*
X116947725Y-74036910D01*
X116947725Y-74036910D02*
X116875758Y-74180843D01*
X116875758Y-74180843D02*
X116803791Y-74252810D01*
X116803791Y-74252810D02*
X116659858Y-74324776D01*
X116659858Y-74324776D02*
X116515925Y-74324776D01*
X116515925Y-74324776D02*
X116371991Y-74252810D01*
X116371991Y-74252810D02*
X116300025Y-74180843D01*
X116300025Y-74180843D02*
X116228058Y-74036910D01*
X116228058Y-74036910D02*
X116156091Y-73749043D01*
X116156091Y-73749043D02*
X116156091Y-73389210D01*
X116156091Y-73389210D02*
X116228058Y-73101343D01*
X116228058Y-73101343D02*
X116300025Y-72957410D01*
X116300025Y-72957410D02*
X116371991Y-72885443D01*
X116371991Y-72885443D02*
X116515925Y-72813476D01*
D11*
X182230072Y-113488289D02*
X182752586Y-113488289D01*
X182491329Y-113488289D02*
X182491329Y-114402689D01*
X182491329Y-114402689D02*
X182578415Y-114272060D01*
X182578415Y-114272060D02*
X182665500Y-114184974D01*
X182665500Y-114184974D02*
X182752586Y-114141432D01*
D12*
X130476941Y-120871309D02*
X129726262Y-121997327D01*
X130727167Y-121747101D02*
X130852280Y-121788805D01*
X130852280Y-121788805D02*
X131060802Y-121788805D01*
X131060802Y-121788805D02*
X131144211Y-121747101D01*
X131144211Y-121747101D02*
X131185915Y-121705396D01*
X131185915Y-121705396D02*
X131227620Y-121621987D01*
X131227620Y-121621987D02*
X131227620Y-121538579D01*
X131227620Y-121538579D02*
X131185915Y-121455170D01*
X131185915Y-121455170D02*
X131144211Y-121413465D01*
X131144211Y-121413465D02*
X131060802Y-121371761D01*
X131060802Y-121371761D02*
X130893985Y-121330057D01*
X130893985Y-121330057D02*
X130810576Y-121288352D01*
X130810576Y-121288352D02*
X130768871Y-121246648D01*
X130768871Y-121246648D02*
X130727167Y-121163239D01*
X130727167Y-121163239D02*
X130727167Y-121079830D01*
X130727167Y-121079830D02*
X130768871Y-120996422D01*
X130768871Y-120996422D02*
X130810576Y-120954717D01*
X130810576Y-120954717D02*
X130893985Y-120913013D01*
X130893985Y-120913013D02*
X131102506Y-120913013D01*
X131102506Y-120913013D02*
X131227620Y-120954717D01*
X131602959Y-121788805D02*
X131602959Y-120913013D01*
X131602959Y-120913013D02*
X131811481Y-120913013D01*
X131811481Y-120913013D02*
X131936594Y-120954717D01*
X131936594Y-120954717D02*
X132020003Y-121038126D01*
X132020003Y-121038126D02*
X132061708Y-121121535D01*
X132061708Y-121121535D02*
X132103412Y-121288352D01*
X132103412Y-121288352D02*
X132103412Y-121413465D01*
X132103412Y-121413465D02*
X132061708Y-121580283D01*
X132061708Y-121580283D02*
X132020003Y-121663692D01*
X132020003Y-121663692D02*
X131936594Y-121747101D01*
X131936594Y-121747101D02*
X131811481Y-121788805D01*
X131811481Y-121788805D02*
X131602959Y-121788805D01*
X132478751Y-121788805D02*
X132478751Y-120913013D01*
X132895795Y-121788805D02*
X132895795Y-120913013D01*
X132895795Y-120913013D02*
X133396248Y-121788805D01*
X133396248Y-121788805D02*
X133396248Y-120913013D01*
X133980109Y-120913013D02*
X134063518Y-120913013D01*
X134063518Y-120913013D02*
X134146926Y-120954717D01*
X134146926Y-120954717D02*
X134188631Y-120996422D01*
X134188631Y-120996422D02*
X134230335Y-121079830D01*
X134230335Y-121079830D02*
X134272040Y-121246648D01*
X134272040Y-121246648D02*
X134272040Y-121455170D01*
X134272040Y-121455170D02*
X134230335Y-121621987D01*
X134230335Y-121621987D02*
X134188631Y-121705396D01*
X134188631Y-121705396D02*
X134146926Y-121747101D01*
X134146926Y-121747101D02*
X134063518Y-121788805D01*
X134063518Y-121788805D02*
X133980109Y-121788805D01*
X133980109Y-121788805D02*
X133896700Y-121747101D01*
X133896700Y-121747101D02*
X133854996Y-121705396D01*
X133854996Y-121705396D02*
X133813291Y-121621987D01*
X133813291Y-121621987D02*
X133771587Y-121455170D01*
X133771587Y-121455170D02*
X133771587Y-121246648D01*
X133771587Y-121246648D02*
X133813291Y-121079830D01*
X133813291Y-121079830D02*
X133854996Y-120996422D01*
X133854996Y-120996422D02*
X133896700Y-120954717D01*
X133896700Y-120954717D02*
X133980109Y-120913013D01*
X135265011Y-113251309D02*
X134514332Y-114377327D01*
X135973985Y-114168805D02*
X135556941Y-114168805D01*
X135556941Y-114168805D02*
X135556941Y-113293013D01*
X136766368Y-114168805D02*
X136474437Y-113751761D01*
X136265915Y-114168805D02*
X136265915Y-113293013D01*
X136265915Y-113293013D02*
X136599550Y-113293013D01*
X136599550Y-113293013D02*
X136682959Y-113334717D01*
X136682959Y-113334717D02*
X136724664Y-113376422D01*
X136724664Y-113376422D02*
X136766368Y-113459830D01*
X136766368Y-113459830D02*
X136766368Y-113584944D01*
X136766368Y-113584944D02*
X136724664Y-113668352D01*
X136724664Y-113668352D02*
X136682959Y-113710057D01*
X136682959Y-113710057D02*
X136599550Y-113751761D01*
X136599550Y-113751761D02*
X136265915Y-113751761D01*
X137642160Y-114085396D02*
X137600456Y-114127101D01*
X137600456Y-114127101D02*
X137475342Y-114168805D01*
X137475342Y-114168805D02*
X137391934Y-114168805D01*
X137391934Y-114168805D02*
X137266821Y-114127101D01*
X137266821Y-114127101D02*
X137183412Y-114043692D01*
X137183412Y-114043692D02*
X137141707Y-113960283D01*
X137141707Y-113960283D02*
X137100003Y-113793465D01*
X137100003Y-113793465D02*
X137100003Y-113668352D01*
X137100003Y-113668352D02*
X137141707Y-113501535D01*
X137141707Y-113501535D02*
X137183412Y-113418126D01*
X137183412Y-113418126D02*
X137266821Y-113334717D01*
X137266821Y-113334717D02*
X137391934Y-113293013D01*
X137391934Y-113293013D02*
X137475342Y-113293013D01*
X137475342Y-113293013D02*
X137600456Y-113334717D01*
X137600456Y-113334717D02*
X137642160Y-113376422D01*
X138017499Y-114168805D02*
X138017499Y-113293013D01*
X138517952Y-114168805D02*
X138142613Y-113668352D01*
X138517952Y-113293013D02*
X138017499Y-113793465D01*
X139060109Y-113293013D02*
X139143518Y-113293013D01*
X139143518Y-113293013D02*
X139226926Y-113334717D01*
X139226926Y-113334717D02*
X139268631Y-113376422D01*
X139268631Y-113376422D02*
X139310335Y-113459830D01*
X139310335Y-113459830D02*
X139352040Y-113626648D01*
X139352040Y-113626648D02*
X139352040Y-113835170D01*
X139352040Y-113835170D02*
X139310335Y-114001987D01*
X139310335Y-114001987D02*
X139268631Y-114085396D01*
X139268631Y-114085396D02*
X139226926Y-114127101D01*
X139226926Y-114127101D02*
X139143518Y-114168805D01*
X139143518Y-114168805D02*
X139060109Y-114168805D01*
X139060109Y-114168805D02*
X138976700Y-114127101D01*
X138976700Y-114127101D02*
X138934996Y-114085396D01*
X138934996Y-114085396D02*
X138893291Y-114001987D01*
X138893291Y-114001987D02*
X138851587Y-113835170D01*
X138851587Y-113835170D02*
X138851587Y-113626648D01*
X138851587Y-113626648D02*
X138893291Y-113459830D01*
X138893291Y-113459830D02*
X138934996Y-113376422D01*
X138934996Y-113376422D02*
X138976700Y-113334717D01*
X138976700Y-113334717D02*
X139060109Y-113293013D01*
X146605029Y-95066633D02*
X145854350Y-96192651D01*
X146896959Y-95984129D02*
X146896959Y-95108337D01*
X146896959Y-95108337D02*
X147188890Y-95733903D01*
X147188890Y-95733903D02*
X147480821Y-95108337D01*
X147480821Y-95108337D02*
X147480821Y-95984129D01*
X148398317Y-95900720D02*
X148356613Y-95942425D01*
X148356613Y-95942425D02*
X148231499Y-95984129D01*
X148231499Y-95984129D02*
X148148091Y-95984129D01*
X148148091Y-95984129D02*
X148022978Y-95942425D01*
X148022978Y-95942425D02*
X147939569Y-95859016D01*
X147939569Y-95859016D02*
X147897864Y-95775607D01*
X147897864Y-95775607D02*
X147856160Y-95608789D01*
X147856160Y-95608789D02*
X147856160Y-95483676D01*
X147856160Y-95483676D02*
X147897864Y-95316859D01*
X147897864Y-95316859D02*
X147939569Y-95233450D01*
X147939569Y-95233450D02*
X148022978Y-95150041D01*
X148022978Y-95150041D02*
X148148091Y-95108337D01*
X148148091Y-95108337D02*
X148231499Y-95108337D01*
X148231499Y-95108337D02*
X148356613Y-95150041D01*
X148356613Y-95150041D02*
X148398317Y-95191746D01*
X149190700Y-95984129D02*
X148773656Y-95984129D01*
X148773656Y-95984129D02*
X148773656Y-95108337D01*
X149482630Y-95984129D02*
X149482630Y-95108337D01*
X149983083Y-95984129D02*
X149607744Y-95483676D01*
X149983083Y-95108337D02*
X149482630Y-95608789D01*
X150525240Y-95108337D02*
X150608649Y-95108337D01*
X150608649Y-95108337D02*
X150692057Y-95150041D01*
X150692057Y-95150041D02*
X150733762Y-95191746D01*
X150733762Y-95191746D02*
X150775466Y-95275154D01*
X150775466Y-95275154D02*
X150817171Y-95441972D01*
X150817171Y-95441972D02*
X150817171Y-95650494D01*
X150817171Y-95650494D02*
X150775466Y-95817311D01*
X150775466Y-95817311D02*
X150733762Y-95900720D01*
X150733762Y-95900720D02*
X150692057Y-95942425D01*
X150692057Y-95942425D02*
X150608649Y-95984129D01*
X150608649Y-95984129D02*
X150525240Y-95984129D01*
X150525240Y-95984129D02*
X150441831Y-95942425D01*
X150441831Y-95942425D02*
X150400127Y-95900720D01*
X150400127Y-95900720D02*
X150358422Y-95817311D01*
X150358422Y-95817311D02*
X150316718Y-95650494D01*
X150316718Y-95650494D02*
X150316718Y-95441972D01*
X150316718Y-95441972D02*
X150358422Y-95275154D01*
X150358422Y-95275154D02*
X150400127Y-95191746D01*
X150400127Y-95191746D02*
X150441831Y-95150041D01*
X150441831Y-95150041D02*
X150525240Y-95108337D01*
X132952529Y-107766633D02*
X132201850Y-108892651D01*
X133202755Y-108642425D02*
X133327868Y-108684129D01*
X133327868Y-108684129D02*
X133536390Y-108684129D01*
X133536390Y-108684129D02*
X133619799Y-108642425D01*
X133619799Y-108642425D02*
X133661503Y-108600720D01*
X133661503Y-108600720D02*
X133703208Y-108517311D01*
X133703208Y-108517311D02*
X133703208Y-108433903D01*
X133703208Y-108433903D02*
X133661503Y-108350494D01*
X133661503Y-108350494D02*
X133619799Y-108308789D01*
X133619799Y-108308789D02*
X133536390Y-108267085D01*
X133536390Y-108267085D02*
X133369573Y-108225381D01*
X133369573Y-108225381D02*
X133286164Y-108183676D01*
X133286164Y-108183676D02*
X133244459Y-108141972D01*
X133244459Y-108141972D02*
X133202755Y-108058563D01*
X133202755Y-108058563D02*
X133202755Y-107975154D01*
X133202755Y-107975154D02*
X133244459Y-107891746D01*
X133244459Y-107891746D02*
X133286164Y-107850041D01*
X133286164Y-107850041D02*
X133369573Y-107808337D01*
X133369573Y-107808337D02*
X133578094Y-107808337D01*
X133578094Y-107808337D02*
X133703208Y-107850041D01*
X134579000Y-108600720D02*
X134537296Y-108642425D01*
X134537296Y-108642425D02*
X134412182Y-108684129D01*
X134412182Y-108684129D02*
X134328774Y-108684129D01*
X134328774Y-108684129D02*
X134203661Y-108642425D01*
X134203661Y-108642425D02*
X134120252Y-108559016D01*
X134120252Y-108559016D02*
X134078547Y-108475607D01*
X134078547Y-108475607D02*
X134036843Y-108308789D01*
X134036843Y-108308789D02*
X134036843Y-108183676D01*
X134036843Y-108183676D02*
X134078547Y-108016859D01*
X134078547Y-108016859D02*
X134120252Y-107933450D01*
X134120252Y-107933450D02*
X134203661Y-107850041D01*
X134203661Y-107850041D02*
X134328774Y-107808337D01*
X134328774Y-107808337D02*
X134412182Y-107808337D01*
X134412182Y-107808337D02*
X134537296Y-107850041D01*
X134537296Y-107850041D02*
X134579000Y-107891746D01*
X135371383Y-108684129D02*
X134954339Y-108684129D01*
X134954339Y-108684129D02*
X134954339Y-107808337D01*
X135663313Y-108684129D02*
X135663313Y-107808337D01*
X136163766Y-108684129D02*
X135788427Y-108183676D01*
X136163766Y-107808337D02*
X135663313Y-108308789D01*
X136705923Y-107808337D02*
X136789332Y-107808337D01*
X136789332Y-107808337D02*
X136872740Y-107850041D01*
X136872740Y-107850041D02*
X136914445Y-107891746D01*
X136914445Y-107891746D02*
X136956149Y-107975154D01*
X136956149Y-107975154D02*
X136997854Y-108141972D01*
X136997854Y-108141972D02*
X136997854Y-108350494D01*
X136997854Y-108350494D02*
X136956149Y-108517311D01*
X136956149Y-108517311D02*
X136914445Y-108600720D01*
X136914445Y-108600720D02*
X136872740Y-108642425D01*
X136872740Y-108642425D02*
X136789332Y-108684129D01*
X136789332Y-108684129D02*
X136705923Y-108684129D01*
X136705923Y-108684129D02*
X136622514Y-108642425D01*
X136622514Y-108642425D02*
X136580810Y-108600720D01*
X136580810Y-108600720D02*
X136539105Y-108517311D01*
X136539105Y-108517311D02*
X136497401Y-108350494D01*
X136497401Y-108350494D02*
X136497401Y-108141972D01*
X136497401Y-108141972D02*
X136539105Y-107975154D01*
X136539105Y-107975154D02*
X136580810Y-107891746D01*
X136580810Y-107891746D02*
X136622514Y-107850041D01*
X136622514Y-107850041D02*
X136705923Y-107808337D01*
X138199219Y-121506309D02*
X137448540Y-122632327D01*
X138449445Y-122382101D02*
X138574558Y-122423805D01*
X138574558Y-122423805D02*
X138783080Y-122423805D01*
X138783080Y-122423805D02*
X138866489Y-122382101D01*
X138866489Y-122382101D02*
X138908193Y-122340396D01*
X138908193Y-122340396D02*
X138949898Y-122256987D01*
X138949898Y-122256987D02*
X138949898Y-122173579D01*
X138949898Y-122173579D02*
X138908193Y-122090170D01*
X138908193Y-122090170D02*
X138866489Y-122048465D01*
X138866489Y-122048465D02*
X138783080Y-122006761D01*
X138783080Y-122006761D02*
X138616263Y-121965057D01*
X138616263Y-121965057D02*
X138532854Y-121923352D01*
X138532854Y-121923352D02*
X138491149Y-121881648D01*
X138491149Y-121881648D02*
X138449445Y-121798239D01*
X138449445Y-121798239D02*
X138449445Y-121714830D01*
X138449445Y-121714830D02*
X138491149Y-121631422D01*
X138491149Y-121631422D02*
X138532854Y-121589717D01*
X138532854Y-121589717D02*
X138616263Y-121548013D01*
X138616263Y-121548013D02*
X138824784Y-121548013D01*
X138824784Y-121548013D02*
X138949898Y-121589717D01*
X139325237Y-122423805D02*
X139325237Y-121548013D01*
X139325237Y-121548013D02*
X139533759Y-121548013D01*
X139533759Y-121548013D02*
X139658872Y-121589717D01*
X139658872Y-121589717D02*
X139742281Y-121673126D01*
X139742281Y-121673126D02*
X139783986Y-121756535D01*
X139783986Y-121756535D02*
X139825690Y-121923352D01*
X139825690Y-121923352D02*
X139825690Y-122048465D01*
X139825690Y-122048465D02*
X139783986Y-122215283D01*
X139783986Y-122215283D02*
X139742281Y-122298692D01*
X139742281Y-122298692D02*
X139658872Y-122382101D01*
X139658872Y-122382101D02*
X139533759Y-122423805D01*
X139533759Y-122423805D02*
X139325237Y-122423805D01*
X140367847Y-121548013D02*
X140534664Y-121548013D01*
X140534664Y-121548013D02*
X140618073Y-121589717D01*
X140618073Y-121589717D02*
X140701482Y-121673126D01*
X140701482Y-121673126D02*
X140743186Y-121839944D01*
X140743186Y-121839944D02*
X140743186Y-122131874D01*
X140743186Y-122131874D02*
X140701482Y-122298692D01*
X140701482Y-122298692D02*
X140618073Y-122382101D01*
X140618073Y-122382101D02*
X140534664Y-122423805D01*
X140534664Y-122423805D02*
X140367847Y-122423805D01*
X140367847Y-122423805D02*
X140284438Y-122382101D01*
X140284438Y-122382101D02*
X140201029Y-122298692D01*
X140201029Y-122298692D02*
X140159325Y-122131874D01*
X140159325Y-122131874D02*
X140159325Y-121839944D01*
X140159325Y-121839944D02*
X140201029Y-121673126D01*
X140201029Y-121673126D02*
X140284438Y-121589717D01*
X140284438Y-121589717D02*
X140367847Y-121548013D01*
X141118525Y-121548013D02*
X141118525Y-122256987D01*
X141118525Y-122256987D02*
X141160230Y-122340396D01*
X141160230Y-122340396D02*
X141201934Y-122382101D01*
X141201934Y-122382101D02*
X141285343Y-122423805D01*
X141285343Y-122423805D02*
X141452160Y-122423805D01*
X141452160Y-122423805D02*
X141535569Y-122382101D01*
X141535569Y-122382101D02*
X141577274Y-122340396D01*
X141577274Y-122340396D02*
X141618978Y-122256987D01*
X141618978Y-122256987D02*
X141618978Y-121548013D01*
X141910908Y-121548013D02*
X142411361Y-121548013D01*
X142161135Y-122423805D02*
X142161135Y-121548013D01*
X142870109Y-121548013D02*
X142953518Y-121548013D01*
X142953518Y-121548013D02*
X143036926Y-121589717D01*
X143036926Y-121589717D02*
X143078631Y-121631422D01*
X143078631Y-121631422D02*
X143120335Y-121714830D01*
X143120335Y-121714830D02*
X143162040Y-121881648D01*
X143162040Y-121881648D02*
X143162040Y-122090170D01*
X143162040Y-122090170D02*
X143120335Y-122256987D01*
X143120335Y-122256987D02*
X143078631Y-122340396D01*
X143078631Y-122340396D02*
X143036926Y-122382101D01*
X143036926Y-122382101D02*
X142953518Y-122423805D01*
X142953518Y-122423805D02*
X142870109Y-122423805D01*
X142870109Y-122423805D02*
X142786700Y-122382101D01*
X142786700Y-122382101D02*
X142744996Y-122340396D01*
X142744996Y-122340396D02*
X142703291Y-122256987D01*
X142703291Y-122256987D02*
X142661587Y-122090170D01*
X142661587Y-122090170D02*
X142661587Y-121881648D01*
X142661587Y-121881648D02*
X142703291Y-121714830D01*
X142703291Y-121714830D02*
X142744996Y-121631422D01*
X142744996Y-121631422D02*
X142786700Y-121589717D01*
X142786700Y-121589717D02*
X142870109Y-121548013D01*
X129107429Y-103336633D02*
X128356750Y-104462651D01*
X129899812Y-104254129D02*
X129607881Y-103837085D01*
X129399359Y-104254129D02*
X129399359Y-103378337D01*
X129399359Y-103378337D02*
X129732994Y-103378337D01*
X129732994Y-103378337D02*
X129816403Y-103420041D01*
X129816403Y-103420041D02*
X129858108Y-103461746D01*
X129858108Y-103461746D02*
X129899812Y-103545154D01*
X129899812Y-103545154D02*
X129899812Y-103670268D01*
X129899812Y-103670268D02*
X129858108Y-103753676D01*
X129858108Y-103753676D02*
X129816403Y-103795381D01*
X129816403Y-103795381D02*
X129732994Y-103837085D01*
X129732994Y-103837085D02*
X129399359Y-103837085D01*
X130275151Y-103795381D02*
X130567082Y-103795381D01*
X130692195Y-104254129D02*
X130275151Y-104254129D01*
X130275151Y-104254129D02*
X130275151Y-103378337D01*
X130275151Y-103378337D02*
X130692195Y-103378337D01*
X131025830Y-104212425D02*
X131150943Y-104254129D01*
X131150943Y-104254129D02*
X131359465Y-104254129D01*
X131359465Y-104254129D02*
X131442874Y-104212425D01*
X131442874Y-104212425D02*
X131484578Y-104170720D01*
X131484578Y-104170720D02*
X131526283Y-104087311D01*
X131526283Y-104087311D02*
X131526283Y-104003903D01*
X131526283Y-104003903D02*
X131484578Y-103920494D01*
X131484578Y-103920494D02*
X131442874Y-103878789D01*
X131442874Y-103878789D02*
X131359465Y-103837085D01*
X131359465Y-103837085D02*
X131192648Y-103795381D01*
X131192648Y-103795381D02*
X131109239Y-103753676D01*
X131109239Y-103753676D02*
X131067534Y-103711972D01*
X131067534Y-103711972D02*
X131025830Y-103628563D01*
X131025830Y-103628563D02*
X131025830Y-103545154D01*
X131025830Y-103545154D02*
X131067534Y-103461746D01*
X131067534Y-103461746D02*
X131109239Y-103420041D01*
X131109239Y-103420041D02*
X131192648Y-103378337D01*
X131192648Y-103378337D02*
X131401169Y-103378337D01*
X131401169Y-103378337D02*
X131526283Y-103420041D01*
X131901622Y-103795381D02*
X132193553Y-103795381D01*
X132318666Y-104254129D02*
X131901622Y-104254129D01*
X131901622Y-104254129D02*
X131901622Y-103378337D01*
X131901622Y-103378337D02*
X132318666Y-103378337D01*
X132568892Y-103378337D02*
X133069345Y-103378337D01*
X132819119Y-104254129D02*
X132819119Y-103378337D01*
X133528093Y-103378337D02*
X133611502Y-103378337D01*
X133611502Y-103378337D02*
X133694910Y-103420041D01*
X133694910Y-103420041D02*
X133736615Y-103461746D01*
X133736615Y-103461746D02*
X133778319Y-103545154D01*
X133778319Y-103545154D02*
X133820024Y-103711972D01*
X133820024Y-103711972D02*
X133820024Y-103920494D01*
X133820024Y-103920494D02*
X133778319Y-104087311D01*
X133778319Y-104087311D02*
X133736615Y-104170720D01*
X133736615Y-104170720D02*
X133694910Y-104212425D01*
X133694910Y-104212425D02*
X133611502Y-104254129D01*
X133611502Y-104254129D02*
X133528093Y-104254129D01*
X133528093Y-104254129D02*
X133444684Y-104212425D01*
X133444684Y-104212425D02*
X133402980Y-104170720D01*
X133402980Y-104170720D02*
X133361275Y-104087311D01*
X133361275Y-104087311D02*
X133319571Y-103920494D01*
X133319571Y-103920494D02*
X133319571Y-103711972D01*
X133319571Y-103711972D02*
X133361275Y-103545154D01*
X133361275Y-103545154D02*
X133402980Y-103461746D01*
X133402980Y-103461746D02*
X133444684Y-103420041D01*
X133444684Y-103420041D02*
X133528093Y-103378337D01*
X155089133Y-83757270D02*
X156215151Y-84507949D01*
X155130837Y-83298522D02*
X155130837Y-83131705D01*
X155130837Y-83131705D02*
X155172541Y-83048296D01*
X155172541Y-83048296D02*
X155255950Y-82964887D01*
X155255950Y-82964887D02*
X155422768Y-82923183D01*
X155422768Y-82923183D02*
X155714698Y-82923183D01*
X155714698Y-82923183D02*
X155881516Y-82964887D01*
X155881516Y-82964887D02*
X155964925Y-83048296D01*
X155964925Y-83048296D02*
X156006629Y-83131705D01*
X156006629Y-83131705D02*
X156006629Y-83298522D01*
X156006629Y-83298522D02*
X155964925Y-83381931D01*
X155964925Y-83381931D02*
X155881516Y-83465340D01*
X155881516Y-83465340D02*
X155714698Y-83507044D01*
X155714698Y-83507044D02*
X155422768Y-83507044D01*
X155422768Y-83507044D02*
X155255950Y-83465340D01*
X155255950Y-83465340D02*
X155172541Y-83381931D01*
X155172541Y-83381931D02*
X155130837Y-83298522D01*
X155130837Y-82547844D02*
X155839811Y-82547844D01*
X155839811Y-82547844D02*
X155923220Y-82506139D01*
X155923220Y-82506139D02*
X155964925Y-82464435D01*
X155964925Y-82464435D02*
X156006629Y-82381026D01*
X156006629Y-82381026D02*
X156006629Y-82214209D01*
X156006629Y-82214209D02*
X155964925Y-82130800D01*
X155964925Y-82130800D02*
X155923220Y-82089095D01*
X155923220Y-82089095D02*
X155839811Y-82047391D01*
X155839811Y-82047391D02*
X155130837Y-82047391D01*
X155130837Y-81755461D02*
X155130837Y-81255008D01*
X156006629Y-81505234D02*
X155130837Y-81505234D01*
X155756403Y-81004782D02*
X155756403Y-80587738D01*
X156006629Y-81088191D02*
X155130837Y-80796260D01*
X155130837Y-80796260D02*
X156006629Y-80504329D01*
X155130837Y-80045581D02*
X155130837Y-79962172D01*
X155130837Y-79962172D02*
X155172541Y-79878764D01*
X155172541Y-79878764D02*
X155214246Y-79837059D01*
X155214246Y-79837059D02*
X155297654Y-79795355D01*
X155297654Y-79795355D02*
X155464472Y-79753650D01*
X155464472Y-79753650D02*
X155672994Y-79753650D01*
X155672994Y-79753650D02*
X155839811Y-79795355D01*
X155839811Y-79795355D02*
X155923220Y-79837059D01*
X155923220Y-79837059D02*
X155964925Y-79878764D01*
X155964925Y-79878764D02*
X156006629Y-79962172D01*
X156006629Y-79962172D02*
X156006629Y-80045581D01*
X156006629Y-80045581D02*
X155964925Y-80128990D01*
X155964925Y-80128990D02*
X155923220Y-80170694D01*
X155923220Y-80170694D02*
X155839811Y-80212399D01*
X155839811Y-80212399D02*
X155672994Y-80254103D01*
X155672994Y-80254103D02*
X155464472Y-80254103D01*
X155464472Y-80254103D02*
X155297654Y-80212399D01*
X155297654Y-80212399D02*
X155214246Y-80170694D01*
X155214246Y-80170694D02*
X155172541Y-80128990D01*
X155172541Y-80128990D02*
X155130837Y-80045581D01*
X144048809Y-84626392D02*
X145174827Y-85377071D01*
X144090513Y-84167644D02*
X144090513Y-84000827D01*
X144090513Y-84000827D02*
X144132217Y-83917418D01*
X144132217Y-83917418D02*
X144215626Y-83834009D01*
X144215626Y-83834009D02*
X144382444Y-83792305D01*
X144382444Y-83792305D02*
X144674374Y-83792305D01*
X144674374Y-83792305D02*
X144841192Y-83834009D01*
X144841192Y-83834009D02*
X144924601Y-83917418D01*
X144924601Y-83917418D02*
X144966305Y-84000827D01*
X144966305Y-84000827D02*
X144966305Y-84167644D01*
X144966305Y-84167644D02*
X144924601Y-84251053D01*
X144924601Y-84251053D02*
X144841192Y-84334462D01*
X144841192Y-84334462D02*
X144674374Y-84376166D01*
X144674374Y-84376166D02*
X144382444Y-84376166D01*
X144382444Y-84376166D02*
X144215626Y-84334462D01*
X144215626Y-84334462D02*
X144132217Y-84251053D01*
X144132217Y-84251053D02*
X144090513Y-84167644D01*
X144090513Y-83416966D02*
X144799487Y-83416966D01*
X144799487Y-83416966D02*
X144882896Y-83375261D01*
X144882896Y-83375261D02*
X144924601Y-83333557D01*
X144924601Y-83333557D02*
X144966305Y-83250148D01*
X144966305Y-83250148D02*
X144966305Y-83083331D01*
X144966305Y-83083331D02*
X144924601Y-82999922D01*
X144924601Y-82999922D02*
X144882896Y-82958217D01*
X144882896Y-82958217D02*
X144799487Y-82916513D01*
X144799487Y-82916513D02*
X144090513Y-82916513D01*
X144090513Y-82624583D02*
X144090513Y-82124130D01*
X144966305Y-82374356D02*
X144090513Y-82374356D01*
X144507557Y-81540269D02*
X144549261Y-81415156D01*
X144549261Y-81415156D02*
X144590965Y-81373451D01*
X144590965Y-81373451D02*
X144674374Y-81331747D01*
X144674374Y-81331747D02*
X144799487Y-81331747D01*
X144799487Y-81331747D02*
X144882896Y-81373451D01*
X144882896Y-81373451D02*
X144924601Y-81415156D01*
X144924601Y-81415156D02*
X144966305Y-81498565D01*
X144966305Y-81498565D02*
X144966305Y-81832200D01*
X144966305Y-81832200D02*
X144090513Y-81832200D01*
X144090513Y-81832200D02*
X144090513Y-81540269D01*
X144090513Y-81540269D02*
X144132217Y-81456860D01*
X144132217Y-81456860D02*
X144173922Y-81415156D01*
X144173922Y-81415156D02*
X144257330Y-81373451D01*
X144257330Y-81373451D02*
X144340739Y-81373451D01*
X144340739Y-81373451D02*
X144424148Y-81415156D01*
X144424148Y-81415156D02*
X144465852Y-81456860D01*
X144465852Y-81456860D02*
X144507557Y-81540269D01*
X144507557Y-81540269D02*
X144507557Y-81832200D01*
X144090513Y-80789590D02*
X144090513Y-80706181D01*
X144090513Y-80706181D02*
X144132217Y-80622773D01*
X144132217Y-80622773D02*
X144173922Y-80581068D01*
X144173922Y-80581068D02*
X144257330Y-80539364D01*
X144257330Y-80539364D02*
X144424148Y-80497659D01*
X144424148Y-80497659D02*
X144632670Y-80497659D01*
X144632670Y-80497659D02*
X144799487Y-80539364D01*
X144799487Y-80539364D02*
X144882896Y-80581068D01*
X144882896Y-80581068D02*
X144924601Y-80622773D01*
X144924601Y-80622773D02*
X144966305Y-80706181D01*
X144966305Y-80706181D02*
X144966305Y-80789590D01*
X144966305Y-80789590D02*
X144924601Y-80872999D01*
X144924601Y-80872999D02*
X144882896Y-80914703D01*
X144882896Y-80914703D02*
X144799487Y-80956408D01*
X144799487Y-80956408D02*
X144632670Y-80998112D01*
X144632670Y-80998112D02*
X144424148Y-80998112D01*
X144424148Y-80998112D02*
X144257330Y-80956408D01*
X144257330Y-80956408D02*
X144173922Y-80914703D01*
X144173922Y-80914703D02*
X144132217Y-80872999D01*
X144132217Y-80872999D02*
X144090513Y-80789590D01*
X141508809Y-83968557D02*
X142634827Y-84719236D01*
X142426305Y-83676627D02*
X141550513Y-83676627D01*
X142426305Y-83259583D02*
X141550513Y-83259583D01*
X141550513Y-83259583D02*
X142426305Y-82759130D01*
X142426305Y-82759130D02*
X141550513Y-82759130D01*
X142176079Y-82383791D02*
X142176079Y-81966747D01*
X142426305Y-82467200D02*
X141550513Y-82175269D01*
X141550513Y-82175269D02*
X142426305Y-81883338D01*
X141550513Y-81424590D02*
X141550513Y-81341181D01*
X141550513Y-81341181D02*
X141592217Y-81257773D01*
X141592217Y-81257773D02*
X141633922Y-81216068D01*
X141633922Y-81216068D02*
X141717330Y-81174364D01*
X141717330Y-81174364D02*
X141884148Y-81132659D01*
X141884148Y-81132659D02*
X142092670Y-81132659D01*
X142092670Y-81132659D02*
X142259487Y-81174364D01*
X142259487Y-81174364D02*
X142342896Y-81216068D01*
X142342896Y-81216068D02*
X142384601Y-81257773D01*
X142384601Y-81257773D02*
X142426305Y-81341181D01*
X142426305Y-81341181D02*
X142426305Y-81424590D01*
X142426305Y-81424590D02*
X142384601Y-81507999D01*
X142384601Y-81507999D02*
X142342896Y-81549703D01*
X142342896Y-81549703D02*
X142259487Y-81591408D01*
X142259487Y-81591408D02*
X142092670Y-81633112D01*
X142092670Y-81633112D02*
X141884148Y-81633112D01*
X141884148Y-81633112D02*
X141717330Y-81591408D01*
X141717330Y-81591408D02*
X141633922Y-81549703D01*
X141633922Y-81549703D02*
X141592217Y-81507999D01*
X141592217Y-81507999D02*
X141550513Y-81424590D01*
X131348809Y-84093670D02*
X132474827Y-84844349D01*
X132266305Y-83801740D02*
X131390513Y-83801740D01*
X132266305Y-83384696D02*
X131390513Y-83384696D01*
X131390513Y-83384696D02*
X132266305Y-82884243D01*
X132266305Y-82884243D02*
X131390513Y-82884243D01*
X131807557Y-82175269D02*
X131849261Y-82050156D01*
X131849261Y-82050156D02*
X131890965Y-82008451D01*
X131890965Y-82008451D02*
X131974374Y-81966747D01*
X131974374Y-81966747D02*
X132099487Y-81966747D01*
X132099487Y-81966747D02*
X132182896Y-82008451D01*
X132182896Y-82008451D02*
X132224601Y-82050156D01*
X132224601Y-82050156D02*
X132266305Y-82133565D01*
X132266305Y-82133565D02*
X132266305Y-82467200D01*
X132266305Y-82467200D02*
X131390513Y-82467200D01*
X131390513Y-82467200D02*
X131390513Y-82175269D01*
X131390513Y-82175269D02*
X131432217Y-82091860D01*
X131432217Y-82091860D02*
X131473922Y-82050156D01*
X131473922Y-82050156D02*
X131557330Y-82008451D01*
X131557330Y-82008451D02*
X131640739Y-82008451D01*
X131640739Y-82008451D02*
X131724148Y-82050156D01*
X131724148Y-82050156D02*
X131765852Y-82091860D01*
X131765852Y-82091860D02*
X131807557Y-82175269D01*
X131807557Y-82175269D02*
X131807557Y-82467200D01*
X131390513Y-81424590D02*
X131390513Y-81341181D01*
X131390513Y-81341181D02*
X131432217Y-81257773D01*
X131432217Y-81257773D02*
X131473922Y-81216068D01*
X131473922Y-81216068D02*
X131557330Y-81174364D01*
X131557330Y-81174364D02*
X131724148Y-81132659D01*
X131724148Y-81132659D02*
X131932670Y-81132659D01*
X131932670Y-81132659D02*
X132099487Y-81174364D01*
X132099487Y-81174364D02*
X132182896Y-81216068D01*
X132182896Y-81216068D02*
X132224601Y-81257773D01*
X132224601Y-81257773D02*
X132266305Y-81341181D01*
X132266305Y-81341181D02*
X132266305Y-81424590D01*
X132266305Y-81424590D02*
X132224601Y-81507999D01*
X132224601Y-81507999D02*
X132182896Y-81549703D01*
X132182896Y-81549703D02*
X132099487Y-81591408D01*
X132099487Y-81591408D02*
X131932670Y-81633112D01*
X131932670Y-81633112D02*
X131724148Y-81633112D01*
X131724148Y-81633112D02*
X131557330Y-81591408D01*
X131557330Y-81591408D02*
X131473922Y-81549703D01*
X131473922Y-81549703D02*
X131432217Y-81507999D01*
X131432217Y-81507999D02*
X131390513Y-81424590D01*
X132917429Y-105876633D02*
X132166750Y-107002651D01*
X133167655Y-106752425D02*
X133292768Y-106794129D01*
X133292768Y-106794129D02*
X133501290Y-106794129D01*
X133501290Y-106794129D02*
X133584699Y-106752425D01*
X133584699Y-106752425D02*
X133626403Y-106710720D01*
X133626403Y-106710720D02*
X133668108Y-106627311D01*
X133668108Y-106627311D02*
X133668108Y-106543903D01*
X133668108Y-106543903D02*
X133626403Y-106460494D01*
X133626403Y-106460494D02*
X133584699Y-106418789D01*
X133584699Y-106418789D02*
X133501290Y-106377085D01*
X133501290Y-106377085D02*
X133334473Y-106335381D01*
X133334473Y-106335381D02*
X133251064Y-106293676D01*
X133251064Y-106293676D02*
X133209359Y-106251972D01*
X133209359Y-106251972D02*
X133167655Y-106168563D01*
X133167655Y-106168563D02*
X133167655Y-106085154D01*
X133167655Y-106085154D02*
X133209359Y-106001746D01*
X133209359Y-106001746D02*
X133251064Y-105960041D01*
X133251064Y-105960041D02*
X133334473Y-105918337D01*
X133334473Y-105918337D02*
X133542994Y-105918337D01*
X133542994Y-105918337D02*
X133668108Y-105960041D01*
X134043447Y-106794129D02*
X134043447Y-105918337D01*
X134043447Y-105918337D02*
X134251969Y-105918337D01*
X134251969Y-105918337D02*
X134377082Y-105960041D01*
X134377082Y-105960041D02*
X134460491Y-106043450D01*
X134460491Y-106043450D02*
X134502196Y-106126859D01*
X134502196Y-106126859D02*
X134543900Y-106293676D01*
X134543900Y-106293676D02*
X134543900Y-106418789D01*
X134543900Y-106418789D02*
X134502196Y-106585607D01*
X134502196Y-106585607D02*
X134460491Y-106669016D01*
X134460491Y-106669016D02*
X134377082Y-106752425D01*
X134377082Y-106752425D02*
X134251969Y-106794129D01*
X134251969Y-106794129D02*
X134043447Y-106794129D01*
X134877535Y-106543903D02*
X135294579Y-106543903D01*
X134794126Y-106794129D02*
X135086057Y-105918337D01*
X135086057Y-105918337D02*
X135377988Y-106794129D01*
X135836736Y-105918337D02*
X135920145Y-105918337D01*
X135920145Y-105918337D02*
X136003553Y-105960041D01*
X136003553Y-105960041D02*
X136045258Y-106001746D01*
X136045258Y-106001746D02*
X136086962Y-106085154D01*
X136086962Y-106085154D02*
X136128667Y-106251972D01*
X136128667Y-106251972D02*
X136128667Y-106460494D01*
X136128667Y-106460494D02*
X136086962Y-106627311D01*
X136086962Y-106627311D02*
X136045258Y-106710720D01*
X136045258Y-106710720D02*
X136003553Y-106752425D01*
X136003553Y-106752425D02*
X135920145Y-106794129D01*
X135920145Y-106794129D02*
X135836736Y-106794129D01*
X135836736Y-106794129D02*
X135753327Y-106752425D01*
X135753327Y-106752425D02*
X135711623Y-106710720D01*
X135711623Y-106710720D02*
X135669918Y-106627311D01*
X135669918Y-106627311D02*
X135628214Y-106460494D01*
X135628214Y-106460494D02*
X135628214Y-106251972D01*
X135628214Y-106251972D02*
X135669918Y-106085154D01*
X135669918Y-106085154D02*
X135711623Y-106001746D01*
X135711623Y-106001746D02*
X135753327Y-105960041D01*
X135753327Y-105960041D02*
X135836736Y-105918337D01*
X131647429Y-104606633D02*
X130896750Y-105732651D01*
X131897655Y-105482425D02*
X132022768Y-105524129D01*
X132022768Y-105524129D02*
X132231290Y-105524129D01*
X132231290Y-105524129D02*
X132314699Y-105482425D01*
X132314699Y-105482425D02*
X132356403Y-105440720D01*
X132356403Y-105440720D02*
X132398108Y-105357311D01*
X132398108Y-105357311D02*
X132398108Y-105273903D01*
X132398108Y-105273903D02*
X132356403Y-105190494D01*
X132356403Y-105190494D02*
X132314699Y-105148789D01*
X132314699Y-105148789D02*
X132231290Y-105107085D01*
X132231290Y-105107085D02*
X132064473Y-105065381D01*
X132064473Y-105065381D02*
X131981064Y-105023676D01*
X131981064Y-105023676D02*
X131939359Y-104981972D01*
X131939359Y-104981972D02*
X131897655Y-104898563D01*
X131897655Y-104898563D02*
X131897655Y-104815154D01*
X131897655Y-104815154D02*
X131939359Y-104731746D01*
X131939359Y-104731746D02*
X131981064Y-104690041D01*
X131981064Y-104690041D02*
X132064473Y-104648337D01*
X132064473Y-104648337D02*
X132272994Y-104648337D01*
X132272994Y-104648337D02*
X132398108Y-104690041D01*
X133273900Y-105440720D02*
X133232196Y-105482425D01*
X133232196Y-105482425D02*
X133107082Y-105524129D01*
X133107082Y-105524129D02*
X133023674Y-105524129D01*
X133023674Y-105524129D02*
X132898561Y-105482425D01*
X132898561Y-105482425D02*
X132815152Y-105399016D01*
X132815152Y-105399016D02*
X132773447Y-105315607D01*
X132773447Y-105315607D02*
X132731743Y-105148789D01*
X132731743Y-105148789D02*
X132731743Y-105023676D01*
X132731743Y-105023676D02*
X132773447Y-104856859D01*
X132773447Y-104856859D02*
X132815152Y-104773450D01*
X132815152Y-104773450D02*
X132898561Y-104690041D01*
X132898561Y-104690041D02*
X133023674Y-104648337D01*
X133023674Y-104648337D02*
X133107082Y-104648337D01*
X133107082Y-104648337D02*
X133232196Y-104690041D01*
X133232196Y-104690041D02*
X133273900Y-104731746D01*
X134066283Y-105524129D02*
X133649239Y-105524129D01*
X133649239Y-105524129D02*
X133649239Y-104648337D01*
X134525031Y-104648337D02*
X134608440Y-104648337D01*
X134608440Y-104648337D02*
X134691848Y-104690041D01*
X134691848Y-104690041D02*
X134733553Y-104731746D01*
X134733553Y-104731746D02*
X134775257Y-104815154D01*
X134775257Y-104815154D02*
X134816962Y-104981972D01*
X134816962Y-104981972D02*
X134816962Y-105190494D01*
X134816962Y-105190494D02*
X134775257Y-105357311D01*
X134775257Y-105357311D02*
X134733553Y-105440720D01*
X134733553Y-105440720D02*
X134691848Y-105482425D01*
X134691848Y-105482425D02*
X134608440Y-105524129D01*
X134608440Y-105524129D02*
X134525031Y-105524129D01*
X134525031Y-105524129D02*
X134441622Y-105482425D01*
X134441622Y-105482425D02*
X134399918Y-105440720D01*
X134399918Y-105440720D02*
X134358213Y-105357311D01*
X134358213Y-105357311D02*
X134316509Y-105190494D01*
X134316509Y-105190494D02*
X134316509Y-104981972D01*
X134316509Y-104981972D02*
X134358213Y-104815154D01*
X134358213Y-104815154D02*
X134399918Y-104731746D01*
X134399918Y-104731746D02*
X134441622Y-104690041D01*
X134441622Y-104690041D02*
X134525031Y-104648337D01*
D11*
X167896705Y-80442512D02*
X167729791Y-80386873D01*
X167729791Y-80386873D02*
X167451600Y-80386873D01*
X167451600Y-80386873D02*
X167340324Y-80442512D01*
X167340324Y-80442512D02*
X167284686Y-80498150D01*
X167284686Y-80498150D02*
X167229048Y-80609426D01*
X167229048Y-80609426D02*
X167229048Y-80720702D01*
X167229048Y-80720702D02*
X167284686Y-80831978D01*
X167284686Y-80831978D02*
X167340324Y-80887616D01*
X167340324Y-80887616D02*
X167451600Y-80943254D01*
X167451600Y-80943254D02*
X167674153Y-80998892D01*
X167674153Y-80998892D02*
X167785429Y-81054531D01*
X167785429Y-81054531D02*
X167841067Y-81110169D01*
X167841067Y-81110169D02*
X167896705Y-81221445D01*
X167896705Y-81221445D02*
X167896705Y-81332721D01*
X167896705Y-81332721D02*
X167841067Y-81443997D01*
X167841067Y-81443997D02*
X167785429Y-81499635D01*
X167785429Y-81499635D02*
X167674153Y-81555273D01*
X167674153Y-81555273D02*
X167395962Y-81555273D01*
X167395962Y-81555273D02*
X167229048Y-81499635D01*
X166839581Y-81555273D02*
X166561391Y-80386873D01*
X166561391Y-80386873D02*
X166338838Y-81221445D01*
X166338838Y-81221445D02*
X166116286Y-80386873D01*
X166116286Y-80386873D02*
X165838096Y-81555273D01*
X164780972Y-80386873D02*
X165448629Y-80386873D01*
X165114801Y-80386873D02*
X165114801Y-81555273D01*
X165114801Y-81555273D02*
X165226077Y-81388359D01*
X165226077Y-81388359D02*
X165337353Y-81277083D01*
X165337353Y-81277083D02*
X165448629Y-81221445D01*
X122176705Y-142672512D02*
X122009791Y-142616873D01*
X122009791Y-142616873D02*
X121731600Y-142616873D01*
X121731600Y-142616873D02*
X121620324Y-142672512D01*
X121620324Y-142672512D02*
X121564686Y-142728150D01*
X121564686Y-142728150D02*
X121509048Y-142839426D01*
X121509048Y-142839426D02*
X121509048Y-142950702D01*
X121509048Y-142950702D02*
X121564686Y-143061978D01*
X121564686Y-143061978D02*
X121620324Y-143117616D01*
X121620324Y-143117616D02*
X121731600Y-143173254D01*
X121731600Y-143173254D02*
X121954153Y-143228892D01*
X121954153Y-143228892D02*
X122065429Y-143284531D01*
X122065429Y-143284531D02*
X122121067Y-143340169D01*
X122121067Y-143340169D02*
X122176705Y-143451445D01*
X122176705Y-143451445D02*
X122176705Y-143562721D01*
X122176705Y-143562721D02*
X122121067Y-143673997D01*
X122121067Y-143673997D02*
X122065429Y-143729635D01*
X122065429Y-143729635D02*
X121954153Y-143785273D01*
X121954153Y-143785273D02*
X121675962Y-143785273D01*
X121675962Y-143785273D02*
X121509048Y-143729635D01*
X121119581Y-143785273D02*
X120841391Y-142616873D01*
X120841391Y-142616873D02*
X120618838Y-143451445D01*
X120618838Y-143451445D02*
X120396286Y-142616873D01*
X120396286Y-142616873D02*
X120118096Y-143785273D01*
X119728629Y-143673997D02*
X119672991Y-143729635D01*
X119672991Y-143729635D02*
X119561715Y-143785273D01*
X119561715Y-143785273D02*
X119283524Y-143785273D01*
X119283524Y-143785273D02*
X119172248Y-143729635D01*
X119172248Y-143729635D02*
X119116610Y-143673997D01*
X119116610Y-143673997D02*
X119060972Y-143562721D01*
X119060972Y-143562721D02*
X119060972Y-143451445D01*
X119060972Y-143451445D02*
X119116610Y-143284531D01*
X119116610Y-143284531D02*
X119784267Y-142616873D01*
X119784267Y-142616873D02*
X119060972Y-142616873D01*
X137416705Y-142672512D02*
X137249791Y-142616873D01*
X137249791Y-142616873D02*
X136971600Y-142616873D01*
X136971600Y-142616873D02*
X136860324Y-142672512D01*
X136860324Y-142672512D02*
X136804686Y-142728150D01*
X136804686Y-142728150D02*
X136749048Y-142839426D01*
X136749048Y-142839426D02*
X136749048Y-142950702D01*
X136749048Y-142950702D02*
X136804686Y-143061978D01*
X136804686Y-143061978D02*
X136860324Y-143117616D01*
X136860324Y-143117616D02*
X136971600Y-143173254D01*
X136971600Y-143173254D02*
X137194153Y-143228892D01*
X137194153Y-143228892D02*
X137305429Y-143284531D01*
X137305429Y-143284531D02*
X137361067Y-143340169D01*
X137361067Y-143340169D02*
X137416705Y-143451445D01*
X137416705Y-143451445D02*
X137416705Y-143562721D01*
X137416705Y-143562721D02*
X137361067Y-143673997D01*
X137361067Y-143673997D02*
X137305429Y-143729635D01*
X137305429Y-143729635D02*
X137194153Y-143785273D01*
X137194153Y-143785273D02*
X136915962Y-143785273D01*
X136915962Y-143785273D02*
X136749048Y-143729635D01*
X136359581Y-143785273D02*
X136081391Y-142616873D01*
X136081391Y-142616873D02*
X135858838Y-143451445D01*
X135858838Y-143451445D02*
X135636286Y-142616873D01*
X135636286Y-142616873D02*
X135358096Y-143785273D01*
X135024267Y-143785273D02*
X134300972Y-143785273D01*
X134300972Y-143785273D02*
X134690439Y-143340169D01*
X134690439Y-143340169D02*
X134523524Y-143340169D01*
X134523524Y-143340169D02*
X134412248Y-143284531D01*
X134412248Y-143284531D02*
X134356610Y-143228892D01*
X134356610Y-143228892D02*
X134300972Y-143117616D01*
X134300972Y-143117616D02*
X134300972Y-142839426D01*
X134300972Y-142839426D02*
X134356610Y-142728150D01*
X134356610Y-142728150D02*
X134412248Y-142672512D01*
X134412248Y-142672512D02*
X134523524Y-142616873D01*
X134523524Y-142616873D02*
X134857353Y-142616873D01*
X134857353Y-142616873D02*
X134968629Y-142672512D01*
X134968629Y-142672512D02*
X135024267Y-142728150D01*
D13*
X171299750Y-80850015D02*
X171691926Y-80850015D01*
X171860002Y-81466292D02*
X171299750Y-81466292D01*
X171299750Y-81466292D02*
X171299750Y-80289764D01*
X171299750Y-80289764D02*
X171860002Y-80289764D01*
X172980505Y-81466292D02*
X172308203Y-81466292D01*
X172644354Y-81466292D02*
X172644354Y-80289764D01*
X172644354Y-80289764D02*
X172532304Y-80457839D01*
X172532304Y-80457839D02*
X172420253Y-80569889D01*
X172420253Y-80569889D02*
X172308203Y-80625915D01*
X171299750Y-143080015D02*
X171691926Y-143080015D01*
X171860002Y-143696292D02*
X171299750Y-143696292D01*
X171299750Y-143696292D02*
X171299750Y-142519764D01*
X171299750Y-142519764D02*
X171860002Y-142519764D01*
X172308203Y-142631814D02*
X172364228Y-142575789D01*
X172364228Y-142575789D02*
X172476279Y-142519764D01*
X172476279Y-142519764D02*
X172756404Y-142519764D01*
X172756404Y-142519764D02*
X172868455Y-142575789D01*
X172868455Y-142575789D02*
X172924480Y-142631814D01*
X172924480Y-142631814D02*
X172980505Y-142743864D01*
X172980505Y-142743864D02*
X172980505Y-142855915D01*
X172980505Y-142855915D02*
X172924480Y-143023990D01*
X172924480Y-143023990D02*
X172252178Y-143696292D01*
X172252178Y-143696292D02*
X172980505Y-143696292D01*
X150979750Y-143080015D02*
X151371926Y-143080015D01*
X151540002Y-143696292D02*
X150979750Y-143696292D01*
X150979750Y-143696292D02*
X150979750Y-142519764D01*
X150979750Y-142519764D02*
X151540002Y-142519764D01*
X151932178Y-142519764D02*
X152660505Y-142519764D01*
X152660505Y-142519764D02*
X152268329Y-142967965D01*
X152268329Y-142967965D02*
X152436404Y-142967965D01*
X152436404Y-142967965D02*
X152548455Y-143023990D01*
X152548455Y-143023990D02*
X152604480Y-143080015D01*
X152604480Y-143080015D02*
X152660505Y-143192065D01*
X152660505Y-143192065D02*
X152660505Y-143472191D01*
X152660505Y-143472191D02*
X152604480Y-143584241D01*
X152604480Y-143584241D02*
X152548455Y-143640267D01*
X152548455Y-143640267D02*
X152436404Y-143696292D01*
X152436404Y-143696292D02*
X152100253Y-143696292D01*
X152100253Y-143696292D02*
X151988203Y-143640267D01*
X151988203Y-143640267D02*
X151932178Y-143584241D01*
D14*
%TO.C,X1*%
X182358600Y-114641100D02*
X182358600Y-114958600D01*
X182993600Y-114641100D02*
X182358600Y-114641100D01*
X182993600Y-114958600D02*
X182993600Y-114641100D01*
X181406100Y-117498600D02*
X181406100Y-114958600D01*
X183946100Y-117498600D02*
X181406100Y-117498600D01*
X133146100Y-120038600D02*
X183946100Y-120038600D01*
X133146100Y-114958600D02*
X133146100Y-120038600D01*
X181406100Y-114958600D02*
X133146100Y-114958600D01*
X182358600Y-114958600D02*
X181406100Y-114958600D01*
X182993600Y-114958600D02*
X182358600Y-114958600D01*
X183946100Y-114958600D02*
X182993600Y-114958600D01*
X183946100Y-117498600D02*
X183946100Y-114958600D01*
X183946100Y-120038600D02*
X183946100Y-117498600D01*
D15*
%TO.C,SW1*%
X168186100Y-68173600D02*
X158026100Y-68173600D01*
D16*
X168106100Y-68888600D02*
X168106100Y-78888600D01*
X158106100Y-68888600D02*
X168106100Y-68888600D01*
X158106100Y-78888600D02*
X158106100Y-68888600D01*
X168106100Y-78888600D02*
X158106100Y-78888600D01*
D15*
%TO.C,SW2*%
X122466100Y-130403600D02*
X112306100Y-130403600D01*
D16*
X122386100Y-131118600D02*
X122386100Y-141118600D01*
X112386100Y-131118600D02*
X122386100Y-131118600D01*
X112386100Y-141118600D02*
X112386100Y-131118600D01*
X122386100Y-141118600D02*
X112386100Y-141118600D01*
D15*
%TO.C,SW3*%
X137706100Y-130403600D02*
X127546100Y-130403600D01*
D16*
X137626100Y-131118600D02*
X137626100Y-141118600D01*
X127626100Y-131118600D02*
X137626100Y-131118600D01*
X127626100Y-141118600D02*
X127626100Y-131118600D01*
X137626100Y-141118600D02*
X127626100Y-141118600D01*
D17*
%TO.C,U$1*%
X122972100Y-127408600D02*
X122972100Y-125098600D01*
X174030100Y-127408600D02*
X122972100Y-127408600D01*
X174030100Y-125098600D02*
X174030100Y-127408600D01*
X122972100Y-125098600D02*
X174030100Y-125098600D01*
D14*
%TO.C,E1*%
X171846100Y-79888600D02*
X184846100Y-79888600D01*
X171846100Y-67888600D02*
X171846100Y-79888600D01*
X184846100Y-67888600D02*
X171846100Y-67888600D01*
X184846100Y-79888600D02*
X184846100Y-67888600D01*
X181346100Y-73888600D02*
G75*
G02*
X175346100Y-73888600I-3000000J0D01*
G01*
X175346100Y-73888600D02*
G75*
G02*
X181346100Y-73888600I3000000J0D01*
G01*
%TO.C,E2*%
X171846100Y-142118600D02*
X184846100Y-142118600D01*
X171846100Y-130118600D02*
X171846100Y-142118600D01*
X184846100Y-130118600D02*
X171846100Y-130118600D01*
X184846100Y-142118600D02*
X184846100Y-130118600D01*
X181346100Y-136118600D02*
G75*
G02*
X175346100Y-136118600I-3000000J0D01*
G01*
X175346100Y-136118600D02*
G75*
G02*
X181346100Y-136118600I3000000J0D01*
G01*
%TO.C,E3*%
X151526100Y-142118600D02*
X164526100Y-142118600D01*
X151526100Y-130118600D02*
X151526100Y-142118600D01*
X164526100Y-130118600D02*
X151526100Y-130118600D01*
X164526100Y-142118600D02*
X164526100Y-130118600D01*
X161026100Y-136118600D02*
G75*
G02*
X155026100Y-136118600I-3000000J0D01*
G01*
X155026100Y-136118600D02*
G75*
G02*
X161026100Y-136118600I3000000J0D01*
G01*
%TD*%
G36*
X142929544Y-65524906D02*
G01*
X142947850Y-65569100D01*
X142942463Y-65594484D01*
X137763213Y-77247796D01*
X137728536Y-77280746D01*
X137680716Y-77279525D01*
X137648987Y-77247796D01*
X132469737Y-65594484D01*
X132468516Y-65546664D01*
X132501466Y-65511987D01*
X132526850Y-65506600D01*
X142885350Y-65506600D01*
X142929544Y-65524906D01*
G37*
G36*
X150431484Y-65417674D02*
G01*
X150463213Y-65449403D01*
X155642463Y-77102716D01*
X155643684Y-77150536D01*
X155610734Y-77185213D01*
X155585350Y-77190600D01*
X145226850Y-77190600D01*
X145182656Y-77172294D01*
X145164350Y-77128100D01*
X145169737Y-77102716D01*
X150348987Y-65449403D01*
X150383664Y-65416453D01*
X150431484Y-65417674D01*
G37*
M02*
