%TF.GenerationSoftware,KiCad,Pcbnew,8.0.6*%
%TF.CreationDate,2024-12-19T22:40:05-08:00*%
%TF.ProjectId,norns-shield-210330,6e6f726e-732d-4736-9869-656c642d3231,rev?*%
%TF.SameCoordinates,Original*%
%TF.FileFunction,Profile,NP*%
%FSLAX46Y46*%
G04 Gerber Fmt 4.6, Leading zero omitted, Abs format (unit mm)*
G04 Created by KiCad (PCBNEW 8.0.6) date 2024-12-19 22:40:05*
%MOMM*%
%LPD*%
G01*
G04 APERTURE LIST*
%TA.AperFunction,Profile*%
%ADD10C,0.050000*%
%TD*%
G04 APERTURE END LIST*
D10*
X105956100Y-67538600D02*
X105956100Y-142468600D01*
X108496100Y-145008600D02*
G75*
G02*
X105956100Y-142468600I0J2540000D01*
G01*
X108496100Y-145008600D02*
X188506100Y-145008600D01*
X191046100Y-142468600D02*
G75*
G02*
X188506100Y-145008600I-2540000J0D01*
G01*
X191046100Y-142468600D02*
X191046100Y-67538600D01*
X188506100Y-64998600D02*
G75*
G02*
X191046100Y-67538600I0J-2540000D01*
G01*
X188506100Y-64998600D02*
X108496100Y-64998600D01*
X105956100Y-67538600D02*
G75*
G02*
X108496100Y-64998600I2540000J0D01*
G01*
%TO.C,E1*%
X176746100Y-79018600D02*
G75*
G02*
X177046100Y-78718600I300000J0D01*
G01*
X176746100Y-80218600D02*
X176746100Y-79018600D01*
X177046100Y-80518600D02*
G75*
G02*
X176746100Y-80218600I0J300000D01*
G01*
X179646100Y-80518600D02*
X177046100Y-80518600D01*
X179946100Y-80218600D02*
G75*
G02*
X179646100Y-80518600I-300000J0D01*
G01*
X179946100Y-79018600D02*
X179946100Y-80218600D01*
X179646100Y-78718600D02*
G75*
G02*
X179946100Y-79018600I0J-300000D01*
G01*
X177046100Y-78718600D02*
X179646100Y-78718600D01*
X176746100Y-67588600D02*
G75*
G02*
X177046100Y-67288600I300000J0D01*
G01*
X176746100Y-68788600D02*
X176746100Y-67588600D01*
X177046100Y-69088600D02*
G75*
G02*
X176746100Y-68788600I0J300000D01*
G01*
X179646100Y-69088600D02*
X177046100Y-69088600D01*
X179946100Y-68788600D02*
G75*
G02*
X179646100Y-69088600I-300000J0D01*
G01*
X179946100Y-67588600D02*
X179946100Y-68788600D01*
X179646100Y-67288600D02*
G75*
G02*
X179946100Y-67588600I0J-300000D01*
G01*
X177046100Y-67288600D02*
X179646100Y-67288600D01*
%TO.C,E2*%
X176746100Y-141248600D02*
G75*
G02*
X177046100Y-140948600I300000J0D01*
G01*
X176746100Y-142448600D02*
X176746100Y-141248600D01*
X177046100Y-142748600D02*
G75*
G02*
X176746100Y-142448600I0J300000D01*
G01*
X179646100Y-142748600D02*
X177046100Y-142748600D01*
X179946100Y-142448600D02*
G75*
G02*
X179646100Y-142748600I-300000J0D01*
G01*
X179946100Y-141248600D02*
X179946100Y-142448600D01*
X179646100Y-140948600D02*
G75*
G02*
X179946100Y-141248600I0J-300000D01*
G01*
X177046100Y-140948600D02*
X179646100Y-140948600D01*
X176746100Y-129818600D02*
G75*
G02*
X177046100Y-129518600I300000J0D01*
G01*
X176746100Y-131018600D02*
X176746100Y-129818600D01*
X177046100Y-131318600D02*
G75*
G02*
X176746100Y-131018600I0J300000D01*
G01*
X179646100Y-131318600D02*
X177046100Y-131318600D01*
X179946100Y-131018600D02*
G75*
G02*
X179646100Y-131318600I-300000J0D01*
G01*
X179946100Y-129818600D02*
X179946100Y-131018600D01*
X179646100Y-129518600D02*
G75*
G02*
X179946100Y-129818600I0J-300000D01*
G01*
X177046100Y-129518600D02*
X179646100Y-129518600D01*
%TO.C,E3*%
X156426100Y-141248600D02*
G75*
G02*
X156726100Y-140948600I300000J0D01*
G01*
X156426100Y-142448600D02*
X156426100Y-141248600D01*
X156726100Y-142748600D02*
G75*
G02*
X156426100Y-142448600I0J300000D01*
G01*
X159326100Y-142748600D02*
X156726100Y-142748600D01*
X159626100Y-142448600D02*
G75*
G02*
X159326100Y-142748600I-300000J0D01*
G01*
X159626100Y-141248600D02*
X159626100Y-142448600D01*
X159326100Y-140948600D02*
G75*
G02*
X159626100Y-141248600I0J-300000D01*
G01*
X156726100Y-140948600D02*
X159326100Y-140948600D01*
X156426100Y-129818600D02*
G75*
G02*
X156726100Y-129518600I300000J0D01*
G01*
X156426100Y-131018600D02*
X156426100Y-129818600D01*
X156726100Y-131318600D02*
G75*
G02*
X156426100Y-131018600I0J300000D01*
G01*
X159326100Y-131318600D02*
X156726100Y-131318600D01*
X159626100Y-131018600D02*
G75*
G02*
X159326100Y-131318600I-300000J0D01*
G01*
X159626100Y-129818600D02*
X159626100Y-131018600D01*
X159326100Y-129518600D02*
G75*
G02*
X159626100Y-129818600I0J-300000D01*
G01*
X156726100Y-129518600D02*
X159326100Y-129518600D01*
%TD*%
M02*
