%TF.GenerationSoftware,KiCad,Pcbnew,8.0.6*%
%TF.CreationDate,2024-12-19T22:40:05-08:00*%
%TF.ProjectId,norns-shield-210330,6e6f726e-732d-4736-9869-656c642d3231,rev?*%
%TF.SameCoordinates,Original*%
%TF.FileFunction,Soldermask,Bot*%
%TF.FilePolarity,Negative*%
%FSLAX46Y46*%
G04 Gerber Fmt 4.6, Leading zero omitted, Abs format (unit mm)*
G04 Created by KiCad (PCBNEW 8.0.6) date 2024-12-19 22:40:05*
%MOMM*%
%LPD*%
G01*
G04 APERTURE LIST*
G04 Aperture macros list*
%AMRoundRect*
0 Rectangle with rounded corners*
0 $1 Rounding radius*
0 $2 $3 $4 $5 $6 $7 $8 $9 X,Y pos of 4 corners*
0 Add a 4 corners polygon primitive as box body*
4,1,4,$2,$3,$4,$5,$6,$7,$8,$9,$2,$3,0*
0 Add four circle primitives for the rounded corners*
1,1,$1+$1,$2,$3*
1,1,$1+$1,$4,$5*
1,1,$1+$1,$6,$7*
1,1,$1+$1,$8,$9*
0 Add four rect primitives between the rounded corners*
20,1,$1+$1,$2,$3,$4,$5,0*
20,1,$1+$1,$4,$5,$6,$7,0*
20,1,$1+$1,$6,$7,$8,$9,0*
20,1,$1+$1,$8,$9,$2,$3,0*%
%AMFreePoly0*
4,1,25,0.309904,0.686196,0.322027,0.675842,0.675842,0.322027,0.704349,0.266079,0.705600,0.250185,0.705600,-0.250185,0.686196,-0.309904,0.675842,-0.322027,0.322027,-0.675842,0.266079,-0.704349,0.250185,-0.705600,-0.250185,-0.705600,-0.309904,-0.686196,-0.322027,-0.675842,-0.675842,-0.322027,-0.704349,-0.266079,-0.705600,-0.250185,-0.705600,0.250185,-0.686196,0.309904,-0.675842,0.322027,
-0.322027,0.675842,-0.266079,0.704349,-0.250185,0.705600,0.250185,0.705600,0.309904,0.686196,0.309904,0.686196,$1*%
%AMFreePoly1*
4,1,25,0.370379,0.832196,0.382502,0.821842,0.821842,0.382502,0.850349,0.326554,0.851600,0.310660,0.851600,-0.310660,0.832196,-0.370379,0.821842,-0.382502,0.382502,-0.821842,0.326554,-0.850349,0.310660,-0.851600,-0.310660,-0.851600,-0.370379,-0.832196,-0.382502,-0.821842,-0.821842,-0.382502,-0.850349,-0.326554,-0.851600,-0.310660,-0.851600,0.310660,-0.832196,0.370379,-0.821842,0.382502,
-0.382502,0.821842,-0.326554,0.850349,-0.310660,0.851600,0.310660,0.851600,0.370379,0.832196,0.370379,0.832196,$1*%
%AMFreePoly2*
4,1,25,0.372036,0.836196,0.384159,0.825842,0.825842,0.384159,0.854349,0.328211,0.855600,0.312317,0.855600,-0.312317,0.836196,-0.372036,0.825842,-0.384159,0.384159,-0.825842,0.328211,-0.854349,0.312317,-0.855600,-0.312317,-0.855600,-0.372036,-0.836196,-0.384159,-0.825842,-0.825842,-0.384159,-0.854349,-0.328211,-0.855600,-0.312317,-0.855600,0.312317,-0.836196,0.372036,-0.825842,0.384159,
-0.384159,0.825842,-0.328211,0.854349,-0.312317,0.855600,0.312317,0.855600,0.372036,0.836196,0.372036,0.836196,$1*%
G04 Aperture macros list end*
%ADD10C,2.800000*%
%ADD11C,1.981200*%
%ADD12RoundRect,0.101600X0.889000X0.889000X-0.889000X0.889000X-0.889000X-0.889000X0.889000X-0.889000X0*%
%ADD13C,2.750000*%
%ADD14RoundRect,0.101600X0.152400X0.495300X-0.152400X0.495300X-0.152400X-0.495300X0.152400X-0.495300X0*%
%ADD15RoundRect,0.101600X-0.500000X0.550000X-0.500000X-0.550000X0.500000X-0.550000X0.500000X0.550000X0*%
%ADD16RoundRect,0.101600X-0.750000X0.650000X-0.750000X-0.650000X0.750000X-0.650000X0.750000X0.650000X0*%
%ADD17RoundRect,0.101600X-0.800000X-0.750000X0.800000X-0.750000X0.800000X0.750000X-0.800000X0.750000X0*%
%ADD18RoundRect,0.101600X0.800000X0.750000X-0.800000X0.750000X-0.800000X-0.750000X0.800000X-0.750000X0*%
%ADD19RoundRect,0.101600X-0.550000X0.500000X-0.550000X-0.500000X0.550000X-0.500000X0.550000X0.500000X0*%
%ADD20RoundRect,0.101600X0.550000X0.500000X-0.550000X0.500000X-0.550000X-0.500000X0.550000X-0.500000X0*%
%ADD21RoundRect,0.101600X0.500000X-0.550000X0.500000X0.550000X-0.500000X0.550000X-0.500000X-0.550000X0*%
%ADD22RoundRect,0.101600X0.750000X-0.650000X0.750000X0.650000X-0.750000X0.650000X-0.750000X-0.650000X0*%
%ADD23RoundRect,0.101600X-0.900000X0.800000X-0.900000X-0.800000X0.900000X-0.800000X0.900000X0.800000X0*%
%ADD24RoundRect,0.101600X0.900000X-0.800000X0.900000X0.800000X-0.900000X0.800000X-0.900000X-0.800000X0*%
%ADD25RoundRect,0.101600X0.550000X-0.500000X0.550000X0.500000X-0.550000X0.500000X-0.550000X-0.500000X0*%
%ADD26RoundRect,0.101600X0.650000X0.750000X-0.650000X0.750000X-0.650000X-0.750000X0.650000X-0.750000X0*%
%ADD27RoundRect,0.101600X-0.650000X-0.750000X0.650000X-0.750000X0.650000X0.750000X-0.650000X0.750000X0*%
%ADD28RoundRect,0.101600X-0.550000X-0.500000X0.550000X-0.500000X0.550000X0.500000X-0.550000X0.500000X0*%
%ADD29RoundRect,0.101600X-0.500000X-0.550000X0.500000X-0.550000X0.500000X0.550000X-0.500000X0.550000X0*%
%ADD30RoundRect,0.101600X0.500000X0.550000X-0.500000X0.550000X-0.500000X-0.550000X0.500000X-0.550000X0*%
%ADD31FreePoly0,180.000000*%
%ADD32C,2.286000*%
%ADD33FreePoly1,0.000000*%
%ADD34RoundRect,0.101600X-0.750000X-0.750000X0.750000X-0.750000X0.750000X0.750000X-0.750000X0.750000X0*%
%ADD35O,4.703200X2.453200*%
%ADD36FreePoly2,270.000000*%
%ADD37RoundRect,0.101600X-1.397000X0.635000X-1.397000X-0.635000X1.397000X-0.635000X1.397000X0.635000X0*%
%ADD38RoundRect,0.101600X-0.495000X0.345000X-0.495000X-0.345000X0.495000X-0.345000X0.495000X0.345000X0*%
%ADD39RoundRect,0.101600X0.495000X-0.345000X0.495000X0.345000X-0.495000X0.345000X-0.495000X-0.345000X0*%
%ADD40RoundRect,0.101600X-0.600000X-0.650000X0.600000X-0.650000X0.600000X0.650000X-0.600000X0.650000X0*%
%ADD41O,2.003200X3.803200*%
%ADD42C,1.600000*%
G04 APERTURE END LIST*
D10*
%TO.C,@HOLE0*%
X187553600Y-141516100D03*
%TD*%
%TO.C,@HOLE1*%
X109448600Y-141516100D03*
%TD*%
D11*
%TO.C,X1*%
X134416100Y-118768600D03*
X134416100Y-116228600D03*
X136956100Y-118768600D03*
X136956100Y-116228600D03*
X139496100Y-118768600D03*
X139496100Y-116228600D03*
X142036100Y-118768600D03*
X142036100Y-116228600D03*
X144576100Y-118768600D03*
X144576100Y-116228600D03*
X147116100Y-118768600D03*
X147116100Y-116228600D03*
X149656100Y-118768600D03*
X149656100Y-116228600D03*
X152196100Y-118768600D03*
X152196100Y-116228600D03*
X154736100Y-118768600D03*
X154736100Y-116228600D03*
X157276100Y-118768600D03*
X157276100Y-116228600D03*
X159816100Y-118768600D03*
X159816100Y-116228600D03*
X162356100Y-118768600D03*
X162356100Y-116228600D03*
X164896100Y-118768600D03*
X164896100Y-116228600D03*
X167436100Y-118768600D03*
X167436100Y-116228600D03*
X169976100Y-118768600D03*
X169976100Y-116228600D03*
X172516100Y-118768600D03*
X172516100Y-116228600D03*
X175056100Y-118768600D03*
X175056100Y-116228600D03*
X177596100Y-118768600D03*
X177596100Y-116228600D03*
X180136100Y-118768600D03*
X180136100Y-116228600D03*
X182676100Y-118768600D03*
D12*
X182676100Y-116228600D03*
D13*
X129546100Y-117498600D03*
X129546100Y-68498600D03*
X187546100Y-68498600D03*
%TD*%
D14*
%TO.C,U1*%
X143186100Y-90020800D03*
X142536100Y-90020800D03*
X141886100Y-90020800D03*
X141236100Y-90020800D03*
X140586100Y-90020800D03*
X139936100Y-90020800D03*
X139286100Y-90020800D03*
X138636100Y-90020800D03*
X137986100Y-90020800D03*
X137336100Y-90020800D03*
X136686100Y-90020800D03*
X136036100Y-90020800D03*
X136036100Y-95856400D03*
X136686100Y-95856400D03*
X137336100Y-95856400D03*
X137986100Y-95856400D03*
X138636100Y-95856400D03*
X139286100Y-95856400D03*
X139936100Y-95856400D03*
X140586100Y-95856400D03*
X141236100Y-95856400D03*
X141886100Y-95856400D03*
X142536100Y-95856400D03*
X143186100Y-95856400D03*
%TD*%
D15*
%TO.C,C1*%
X144691100Y-95693600D03*
X144691100Y-93993600D03*
%TD*%
D16*
%TO.C,C2*%
X146596100Y-95793600D03*
X146596100Y-93893600D03*
%TD*%
D17*
%TO.C,Q1*%
X145306100Y-99408600D03*
X142806100Y-99408600D03*
D18*
X142806100Y-101708600D03*
X145306100Y-101708600D03*
%TD*%
D19*
%TO.C,R1*%
X147866100Y-101408600D03*
X147866100Y-99708600D03*
%TD*%
D20*
%TO.C,C3*%
X143206100Y-104051100D03*
X144906100Y-104051100D03*
%TD*%
D21*
%TO.C,C4*%
X134531100Y-90183600D03*
X134531100Y-91883600D03*
%TD*%
D22*
%TO.C,C5*%
X132626100Y-90083600D03*
X132626100Y-91983600D03*
%TD*%
D15*
%TO.C,C6*%
X134531100Y-95693600D03*
X134531100Y-93993600D03*
%TD*%
D23*
%TO.C,C7*%
X132626100Y-96878600D03*
X132626100Y-94078600D03*
%TD*%
D21*
%TO.C,C8*%
X144691100Y-90183600D03*
X144691100Y-91883600D03*
%TD*%
D24*
%TO.C,C9*%
X146596100Y-88998600D03*
X146596100Y-91798600D03*
%TD*%
D25*
%TO.C,R7*%
X140563600Y-81293600D03*
X140563600Y-82993600D03*
%TD*%
%TO.C,R8*%
X138976100Y-81293600D03*
X138976100Y-82993600D03*
%TD*%
D26*
%TO.C,C10*%
X138661100Y-84683600D03*
X140561100Y-84683600D03*
%TD*%
D20*
%TO.C,C11*%
X138761100Y-86588600D03*
X140461100Y-86588600D03*
%TD*%
D25*
%TO.C,R9*%
X136436100Y-81293600D03*
X136436100Y-82993600D03*
%TD*%
%TO.C,R10*%
X134848600Y-81293600D03*
X134848600Y-82993600D03*
%TD*%
D27*
%TO.C,C12*%
X136751100Y-84683600D03*
X134851100Y-84683600D03*
%TD*%
D28*
%TO.C,C13*%
X136651100Y-86588600D03*
X134951100Y-86588600D03*
%TD*%
D26*
%TO.C,C14*%
X151361100Y-85001100D03*
X153261100Y-85001100D03*
%TD*%
D29*
%TO.C,R11*%
X153161100Y-83096100D03*
X151461100Y-83096100D03*
%TD*%
%TO.C,R12*%
X153161100Y-81508600D03*
X151461100Y-81508600D03*
%TD*%
D15*
%TO.C,C15*%
X154851100Y-82993600D03*
X154851100Y-81293600D03*
%TD*%
D27*
%TO.C,C16*%
X149451100Y-85001100D03*
X147551100Y-85001100D03*
%TD*%
D30*
%TO.C,R13*%
X147651100Y-83096100D03*
X149351100Y-83096100D03*
%TD*%
%TO.C,R14*%
X147651100Y-81508600D03*
X149351100Y-81508600D03*
%TD*%
D15*
%TO.C,C17*%
X145961100Y-82993600D03*
X145961100Y-81293600D03*
%TD*%
D19*
%TO.C,R15*%
X129451100Y-93153600D03*
X129451100Y-91453600D03*
%TD*%
D21*
%TO.C,C35*%
X175171100Y-82563600D03*
X175171100Y-84263600D03*
%TD*%
D19*
%TO.C,R26*%
X167551100Y-84263600D03*
X167551100Y-82563600D03*
%TD*%
%TO.C,R28*%
X173266100Y-84263600D03*
X173266100Y-82563600D03*
%TD*%
%TO.C,R29*%
X171361100Y-84263600D03*
X171361100Y-82563600D03*
%TD*%
D21*
%TO.C,C36*%
X165646100Y-82563600D03*
X165646100Y-84263600D03*
%TD*%
D15*
%TO.C,C38*%
X165011100Y-130618600D03*
X165011100Y-128918600D03*
%TD*%
D25*
%TO.C,R32*%
X172631100Y-128918600D03*
X172631100Y-130618600D03*
%TD*%
%TO.C,R34*%
X166916100Y-128918600D03*
X166916100Y-130618600D03*
%TD*%
%TO.C,R35*%
X168821100Y-128918600D03*
X168821100Y-130618600D03*
%TD*%
D15*
%TO.C,C39*%
X174536100Y-130618600D03*
X174536100Y-128918600D03*
%TD*%
%TO.C,C41*%
X144691100Y-130618600D03*
X144691100Y-128918600D03*
%TD*%
D25*
%TO.C,R38*%
X152311100Y-128918600D03*
X152311100Y-130618600D03*
%TD*%
%TO.C,R40*%
X146596100Y-128918600D03*
X146596100Y-130618600D03*
%TD*%
%TO.C,R41*%
X148501100Y-128918600D03*
X148501100Y-130618600D03*
%TD*%
D15*
%TO.C,C42*%
X154216100Y-130618600D03*
X154216100Y-128918600D03*
%TD*%
D25*
%TO.C,R44*%
X163741100Y-82563600D03*
X163741100Y-84263600D03*
%TD*%
D19*
%TO.C,R45*%
X161836100Y-84263600D03*
X161836100Y-82563600D03*
%TD*%
D21*
%TO.C,C44*%
X159931100Y-82563600D03*
X159931100Y-84263600D03*
%TD*%
D30*
%TO.C,R46*%
X124156100Y-133578600D03*
X125856100Y-133578600D03*
%TD*%
D29*
%TO.C,R47*%
X125856100Y-135483600D03*
X124156100Y-135483600D03*
%TD*%
D20*
%TO.C,C45*%
X124156100Y-137388600D03*
X125856100Y-137388600D03*
%TD*%
D30*
%TO.C,R48*%
X139396100Y-133578600D03*
X141096100Y-133578600D03*
%TD*%
D29*
%TO.C,R49*%
X141096100Y-135483600D03*
X139396100Y-135483600D03*
%TD*%
D20*
%TO.C,C46*%
X139396100Y-137388600D03*
X141096100Y-137388600D03*
%TD*%
D31*
%TO.C,SW1*%
X160106100Y-71388600D03*
X160106100Y-76388600D03*
X166106100Y-76388600D03*
X166106100Y-71388600D03*
%TD*%
%TO.C,SW2*%
X114386100Y-133618600D03*
X114386100Y-138618600D03*
X120386100Y-138618600D03*
X120386100Y-133618600D03*
%TD*%
%TO.C,SW3*%
X129626100Y-133618600D03*
X129626100Y-138618600D03*
X135626100Y-138618600D03*
X135626100Y-133618600D03*
%TD*%
D32*
%TO.C,U$1*%
X187001100Y-83753600D03*
X110001100Y-83753600D03*
D33*
X172631100Y-126253600D03*
X170091100Y-126253600D03*
X167551100Y-126253600D03*
X165011100Y-126253600D03*
X162471100Y-126253600D03*
X159931100Y-126253600D03*
X157391100Y-126253600D03*
X154851100Y-126253600D03*
X152311100Y-126253600D03*
X149771100Y-126253600D03*
X147231100Y-126253600D03*
X144691100Y-126253600D03*
X142151100Y-126253600D03*
X139611100Y-126253600D03*
X137071100Y-126253600D03*
X134531100Y-126253600D03*
X131991100Y-126253600D03*
X129451100Y-126253600D03*
X126911100Y-126253600D03*
D34*
X124371100Y-126253600D03*
%TD*%
D35*
%TO.C,E1*%
X178346100Y-79603600D03*
X178346100Y-68173600D03*
D36*
X170846100Y-76388600D03*
X170846100Y-73888600D03*
X170846100Y-71388600D03*
%TD*%
D35*
%TO.C,E2*%
X178346100Y-141833600D03*
X178346100Y-130403600D03*
D36*
X170846100Y-138618600D03*
X170846100Y-136118600D03*
X170846100Y-133618600D03*
%TD*%
D35*
%TO.C,E3*%
X158026100Y-141833600D03*
X158026100Y-130403600D03*
D36*
X150526100Y-138618600D03*
X150526100Y-136118600D03*
X150526100Y-133618600D03*
%TD*%
D37*
%TO.C,J3*%
X180251100Y-92303600D03*
X180251100Y-94843600D03*
X180251100Y-97383600D03*
X180251100Y-99923600D03*
X180251100Y-102463600D03*
X180251100Y-105003600D03*
%TD*%
D19*
%TO.C,R2*%
X169456100Y-84263600D03*
X169456100Y-82563600D03*
%TD*%
D25*
%TO.C,R3*%
X170726100Y-128918600D03*
X170726100Y-130618600D03*
%TD*%
%TO.C,R4*%
X150406100Y-128918600D03*
X150406100Y-130618600D03*
%TD*%
D21*
%TO.C,C47*%
X149453600Y-90183600D03*
X149453600Y-91883600D03*
%TD*%
D38*
%TO.C,U11*%
X153233600Y-91988600D03*
D39*
X153233600Y-92938600D03*
X153233600Y-93888600D03*
D38*
X155833600Y-93888600D03*
X155833600Y-92938600D03*
X155833600Y-91988600D03*
%TD*%
D16*
%TO.C,C43*%
X151358600Y-93888600D03*
X151358600Y-91988600D03*
%TD*%
D15*
%TO.C,C63*%
X157391100Y-93471100D03*
X157391100Y-91771100D03*
%TD*%
D28*
%TO.C,C88*%
X155383600Y-95478600D03*
X153683600Y-95478600D03*
%TD*%
D40*
%TO.C,L3*%
X155549600Y-89763600D03*
X153517600Y-89763600D03*
%TD*%
D41*
%TO.C,J-OUT0*%
X147906100Y-70438600D03*
X148206100Y-76238600D03*
X152906100Y-74438600D03*
X152906100Y-67538600D03*
D42*
X150406100Y-74138600D03*
X150406100Y-68138600D03*
%TD*%
D41*
%TO.C,J-IN0*%
X135206100Y-70438600D03*
X135506100Y-76238600D03*
X140206100Y-74438600D03*
X140206100Y-67538600D03*
D42*
X137706100Y-74138600D03*
X137706100Y-68138600D03*
%TD*%
M02*
